<svg width="144" height="105" viewBox="0 0 144 105" xmlns="http://www.w3.org/2000/svg"><title>Shape</title><path d="M36.675 57.5v16.716H92.38v-17.02H36.644c.004.103.031.199.031.305zm30.317 5.036a3.171 3.171 0 0 1 3.173 3.169 3.17 3.17 0 0 1-3.173 3.166 3.169 3.169 0 0 1-3.171-3.166 3.17 3.17 0 0 1 3.171-3.169zm14.25 15.327H53.246l-3.151 8.952H39.299a2.574 2.574 0 0 0-2.576 2.573 2.575 2.575 0 0 0 2.576 2.571h53.08v-5.143h-7.985l-3.153-8.953zm54.545-40.578h-33.696c-2.307 0-4.211 1.9-4.211 4.206v52.64c0 2.304 1.902 4.203 4.211 4.203h33.696c2.311 0 4.213-1.897 4.213-4.204V41.49c0-2.306-1.902-4.205-4.213-4.205zm-16.713 58.473c-.543 0-1.084-.409-1.084-1.087 0-.54.407-1.084 1.084-1.084.545 0 1.09.407 1.09 1.084 0 .544-.543 1.087-1.09 1.087zm16.44-5.564h-33.56V42.712h33.56v47.482zM20.335 10.59v-.243a2.437 2.437 0 0 1 2.435-2.434h88.95a2.44 2.44 0 0 1 2.438 2.434V31.79h5.503V10.347c0-4.371-3.56-7.928-7.941-7.928h-88.95c-4.377 0-7.938 3.558-7.938 7.928V49.427h5.502V10.59zm8.256 44.333H6.58C5.22 54.923 4 56.143 4 57.5v38.257c0 1.355 1.221 2.576 2.58 2.576h22.01c1.496 0 2.581-1.221 2.581-2.576V57.5c0-1.494-1.22-2.578-2.58-2.578zM17.314 96.028c-.542 0-1.087-.407-1.087-1.086 0-.542.409-1.085 1.087-1.085.68 0 1.088.406 1.088 1.085 0 .679-.408 1.086-1.088 1.086zm11.141-4.478H6.717V58.99h21.738V91.55z" fill="#FFF" fill-rule="evenodd"/></svg>