<?xml version="1.0" encoding="UTF-8" standalone="no"?>
<svg width="144px" height="105px" viewBox="0 0 144 105" version="1.1" xmlns="http://www.w3.org/2000/svg" xmlns:xlink="http://www.w3.org/1999/xlink" xmlns:sketch="http://www.bohemiancoding.com/sketch/ns">
    <!-- Generator: Sketch 3.3.2 (12043) - http://www.bohemiancoding.com/sketch -->
    <title>Shape</title>
    <desc>Created with Sketch.</desc>
    <defs></defs>
    <g id="Page-1" stroke="none" stroke-width="1" fill="none" fill-rule="evenodd" sketch:type="MSPage">
        <g id="Desktop-HD" sketch:type="MSArtboardGroup" transform="translate(-972.000000, -2432.000000)" fill="#FFFFFF">
            <g id="USPs" sketch:type="MSLayerGroup" transform="translate(0.000000, 2240.000000)">
                <g id="princing" transform="translate(890.000000, 131.823444)" sketch:type="MSShapeGroup">
                    <g id="ico_devices" transform="translate(86.000000, 61.910275)">
                        <g id="Layer%201">
                            <path d="M32.675224,55.7669144 L32.675224,72.4823851 L88.378784,72.4823851 L88.378784,55.4619004 L32.643944,55.4619004 C32.648024,55.5653825 32.675224,55.6608521 32.675224,55.7669144 L32.675224,55.7669144 Z M62.992344,60.8024964 C64.74416,60.8024964 66.165224,62.2215039 66.165224,63.9707847 C66.165224,65.7200655 64.74416,67.137715 62.992344,67.137715 C61.240528,67.137715 59.820688,65.7200655 59.820688,63.9707847 C59.820688,62.2215039 61.240528,60.8024964 62.992344,60.8024964 L62.992344,60.8024964 Z M77.241064,76.1293796 L49.246824,76.1293796 L46.09584,85.0812538 L35.298936,85.0812538 C33.876512,85.0812538 32.72296,86.2324574 32.72296,87.654181 C32.72296,89.0731884 33.876512,90.2256142 35.298936,90.2256142 L88.378784,90.2256142 L88.378784,85.0826119 L80.394088,85.0826119 L77.241064,76.1293796 L77.241064,76.1293796 Z M131.787128,35.5509808 L98.09136,35.5509808 C95.784392,35.5509808 93.879848,37.4507316 93.879848,39.7569412 L93.879848,92.3966997 C93.879848,94.7015514 95.781672,96.6007589 98.09136,96.6007589 L131.787128,96.6007589 C134.098176,96.6007589 136,94.7029094 136,92.3966997 L136,39.7569412 C136,37.4507316 134.098176,35.5509808 131.787128,35.5509808 L131.787128,35.5509808 Z M115.074088,94.0238935 C114.530904,94.0238935 113.990304,93.6153975 113.990304,92.9377396 C113.990304,92.3966997 114.396672,91.8529438 115.074088,91.8529438 C115.618632,91.8529438 116.163176,92.2600817 116.163176,92.9377396 C116.163176,93.4814956 115.621216,94.0238935 115.074088,94.0238935 L115.074088,94.0238935 Z M131.514856,88.4604445 L97.954544,88.4604445 L97.954544,40.9778119 L131.514856,40.9778119 L131.514856,88.4604445 L131.514856,88.4604445 Z M16.333328,8.85642061 L16.333328,8.6130613 C16.333328,7.27159745 17.42568,6.17946825 18.769088,6.17946825 L107.718936,6.17946825 C109.063024,6.17946825 110.15728,7.27159745 110.15728,8.6130613 L110.15728,8.85506258 L110.15728,30.0565198 L115.659704,30.0565198 L115.659704,8.85506258 L115.659704,8.6130613 C115.659704,4.24196423 112.099088,0.685007236 107.718936,0.685007236 L18.769088,0.685007236 C14.39152,0.685007236 10.830904,4.24332226 10.830904,8.6130613 L10.830904,8.85642061 L10.830904,47.6930077 L16.333328,47.6930077 L16.333328,8.85642061 L16.333328,8.85642061 Z M24.590296,53.1888267 L2.57992,53.1888267 C1.221144,53.1888267 0,54.4088825 0,55.7669144 L0,94.0238935 C0,95.3792093 1.221144,96.6007589 2.57992,96.6007589 L24.590296,96.6007589 C26.086432,96.6007589 27.17144,95.3792093 27.17144,94.0238935 L27.17144,55.7669144 C27.17144,54.2736226 25.950296,53.1888267 24.590296,53.1888267 L24.590296,53.1888267 Z M13.3144,94.2944134 C12.771896,94.2944134 12.226672,93.8872755 12.226672,93.2082596 C12.226672,92.6658616 12.63576,92.1234637 13.3144,92.1234637 C13.9944,92.1234637 14.402128,92.5292436 14.402128,93.2082596 C14.402128,93.8872755 13.9944,94.2944134 13.3144,94.2944134 L13.3144,94.2944134 Z M24.455384,89.815896 L2.71728,89.815896 L2.71728,57.2576259 L24.455384,57.2576259 L24.455384,89.815896 L24.455384,89.815896 Z" id="Shape"></path>
                        </g>
                    </g>
                </g>
            </g>
        </g>
    </g>
</svg>