<?xml version="1.0" encoding="UTF-8" standalone="no"?>
<svg width="36px" height="34px" viewBox="0 0 36 34" version="1.1" xmlns="http://www.w3.org/2000/svg" xmlns:xlink="http://www.w3.org/1999/xlink" xmlns:sketch="http://www.bohemiancoding.com/sketch/ns">
    <!-- Generator: Sketch 3.3.2 (12043) - http://www.bohemiancoding.com/sketch -->
    <title>Shape</title>
    <desc>Created with Sketch.</desc>
    <defs></defs>
    <g id="Page-1" stroke="none" stroke-width="1" fill="none" fill-rule="evenodd" sketch:type="MSPage">
        <g id="Desktop-HD" sketch:type="MSArtboardGroup" transform="translate(-399.000000, -2050.000000)" fill="#8F64CC">
            <g id="benefit" sketch:type="MSLayerGroup" transform="translate(0.000000, 1189.000000)">
                <g id="step-3" transform="translate(369.000000, 831.644737)" sketch:type="MSShapeGroup">
                    <g id="Oval-5-+-todos_F-Copy" transform="translate(15.300000, 13.502322)">
                        <g id="30974" transform="translate(15.300000, 16.202786)">
                            <path d="M35.1,30.8946822 L35.1,32.8026822 L0,32.8026822 L0,0.048822382 L1.91451475,0.048822382 L1.91451475,30.8952177 L35.1,30.8952177 L35.1,30.8946822 L35.1,30.8946822 Z M12.5942232,19.4051424 L15.175951,13.4416957 L18.4245082,18.2978735 L22.5989656,14.7156592 L25.4647119,17.6904592 L31.2713543,8.91577063 L31.2713543,2.91078413 L25.4081385,11.7353511 L22.536328,8.75404848 L18.228689,12.4507841 L15.3568785,8.15780326 L12.7244111,14.2395963 L7.81841429,9.11184151 L2.6731511,11.377558 L2.6731511,17.3182076 L8.0252872,14.8507591 L12.5942232,19.4051424 L12.5942232,19.4051424 Z M31.2708937,10.6215797 L25.4076779,19.4462231 L22.5358674,16.4649205 L18.2282284,20.1616562 L15.3564179,15.8686753 L12.7239505,21.9504684 L7.81795372,16.3456562 L2.67269053,18.6113727 L2.67269053,29.7422015 L31.2709705,29.7422015 L31.2709705,10.6215797 L31.2708937,10.6215797 Z" id="Shape"></path>
                        </g>
                    </g>
                </g>
            </g>
        </g>
    </g>
</svg>