<?xml version="1.0" encoding="UTF-8" standalone="no"?>
<svg width="43px" height="41px" viewBox="0 0 43 41" version="1.1" xmlns="http://www.w3.org/2000/svg" xmlns:xlink="http://www.w3.org/1999/xlink" xmlns:sketch="http://www.bohemiancoding.com/sketch/ns">
    <!-- Generator: Sketch 3.3.2 (12043) - http://www.bohemiancoding.com/sketch -->
    <title>download_cloud_F</title>
    <desc>Created with Sketch.</desc>
    <defs></defs>
    <g id="Page-1" stroke="none" stroke-width="1" fill="none" fill-rule="evenodd" sketch:type="MSPage">
        <g id="Desktop-HD" sketch:type="MSArtboardGroup" transform="translate(-395.000000, -1938.000000)" fill="#8F64CC">
            <g id="benefit" sketch:type="MSLayerGroup" transform="translate(0.000000, 1189.000000)">
                <g id="step-2" transform="translate(369.000000, 723.626161)" sketch:type="MSShapeGroup">
                    <g id="Oval-5-+-todos_F-Copy" transform="translate(15.300000, 13.502322)">
                        <path d="M45.8344755,23.4963892 C45.8344755,17.4598461 40.9408783,12.5670096 34.9049717,12.5670096 C30.5557344,12.5670096 26.8107928,15.1132025 25.0514953,18.7904099 C24.2906608,18.407529 23.4339287,18.1875312 22.524312,18.1875312 C19.7327052,18.1875312 17.4205863,20.2189855 16.9685984,22.8822285 C13.6439139,24.0224096 11.25,27.1679556 11.25,30.8811241 C11.25,35.5511422 15.0351339,39.3369382 19.7037949,39.341169 L30.3584801,39.3411694 L30.3584801,25.2604095 L34.5277261,25.2604095 L34.5277261,39.3411694 L45.8344755,39.341169 C50.0990973,39.3179 53.55,35.8550495 53.55,31.5862454 C53.55,27.3096849 50.0913409,23.8433088 45.8175524,23.8313218 C45.8203729,23.7177972 45.8344755,23.6092086 45.8344755,23.4963892 Z M31.7065054,47.2576091 L31.7065054,26.6592106 L33.1167639,26.6592106 L33.1167639,47.2576429 L37.4461896,47.2577468 L32.4602294,52.2437071 L27.4740299,47.2575075 L31.7065054,47.2576091 Z" id="download_cloud_F"></path>
                    </g>
                </g>
            </g>
        </g>
    </g>
</svg>