<?xml version="1.0" encoding="UTF-8" standalone="no"?>
<svg width="98px" height="121px" viewBox="0 0 98 121" version="1.1" xmlns="http://www.w3.org/2000/svg" xmlns:xlink="http://www.w3.org/1999/xlink" xmlns:sketch="http://www.bohemiancoding.com/sketch/ns">
    <!-- Generator: Sketch 3.3.2 (12043) - http://www.bohemiancoding.com/sketch -->
    <title>todos_F</title>
    <desc>Created with Sketch.</desc>
    <defs></defs>
    <g id="Page-1" stroke="none" stroke-width="1" fill="none" fill-rule="evenodd" sketch:type="MSPage">
        <g id="Desktop-HD" sketch:type="MSArtboardGroup" transform="translate(-351.000000, -2412.000000)" fill="#FFFFFF">
            <g id="USPs" sketch:type="MSLayerGroup" transform="translate(0.000000, 2240.000000)">
                <g id="easy-to-use" transform="translate(250.000000, 131.823444)" sketch:type="MSShapeGroup">
                    <path d="M169.217856,65.1134739 C169.217856,65.1134739 147.104218,93.4932847 147.203048,93.5569186 C147.024413,93.4419005 118.331746,65.113474 118.331746,65.1134739 C118.331746,65.113474 105,65.1134739 105,65.1134739 L105,154.983228 L195,154.983228 L195,65.1134739 L169.217856,65.1134739 Z M133.002982,100.192858 C132.44905,100.192858 132,100.640139 132,101.190109 L132,103.689095 C132,104.239862 132.445381,104.686346 133.002982,104.686346 L175.997018,104.686346 C176.55095,104.686346 177,104.239065 177,103.689095 L177,101.190109 C177,100.639343 176.554619,100.192858 175.997018,100.192858 L133.002982,100.192858 Z M123,100.192858 L123,104.686346 L127.5,104.686346 L127.5,100.192858 L123,100.192858 Z M133.002982,116.673383 C132.44905,116.673383 132,117.120664 132,117.670634 L132,120.16962 C132,120.720387 132.445381,121.166871 133.002982,121.166871 L175.997018,121.166871 C176.55095,121.166871 177,120.71959 177,120.16962 L177,117.670634 C177,117.119867 176.554619,116.673383 175.997018,116.673383 L133.002982,116.673383 Z M123,116.673383 L123,121.166871 L127.5,121.166871 L127.5,116.673383 L123,116.673383 Z M133.002982,133.153908 C132.44905,133.153908 132,133.601189 132,134.151159 L132,136.650145 C132,137.200911 132.445381,137.647396 133.002982,137.647396 L175.997018,137.647396 C176.55095,137.647396 177,137.200115 177,136.650145 L177,134.151159 C177,133.600392 176.554619,133.153908 175.997018,133.153908 L133.002982,133.153908 Z M123,133.153908 L123,137.647396 L127.5,137.647396 L127.5,133.153908 L123,133.153908 Z M146.82383,79.9042316 C146.823831,79.9042313 126.994869,61.2401389 126.994869,61.2401389 C126.590725,60.8597368 125.909282,60.8261548 125.468314,61.1686332 L123.631101,62.5955091 C123.192152,62.9364197 123.148377,63.5312966 123.541223,63.9322625 C123.541223,63.9322625 146.823831,87.6961115 146.823831,87.6961117 C146.823831,87.6961119 178.139592,45.7504868 178.139592,45.7504868 C178.46818,45.3103625 178.404092,44.6606718 177.992594,44.2959469 L175.895639,42.4373425 C175.485866,42.0741466 174.891316,42.1327914 174.561971,42.5760027 C174.561971,42.5760027 146.823829,79.9042319 146.82383,79.9042316 Z" id="todos_F"></path>
                </g>
            </g>
        </g>
    </g>
</svg>