<?xml version="1.0" encoding="UTF-8" standalone="no"?>
<svg width="610px" height="210px" viewBox="0 0 610 210" version="1.1" xmlns="http://www.w3.org/2000/svg" xmlns:xlink="http://www.w3.org/1999/xlink" xmlns:sketch="http://www.bohemiancoding.com/sketch/ns">
    <!-- Generator: Sketch 3.3.2 (12043) - http://www.bohemiancoding.com/sketch -->
    <title>logo white</title>
    <desc>Created with Sketch.</desc>
    <defs></defs>
    <g id="Page-1" stroke="none" stroke-width="1" fill="none" fill-rule="evenodd" sketch:type="MSPage">
        <g id="logo-white" sketch:type="MSLayerGroup" fill="#FFFFFF">
            <path d="M288.102254,180.851847 L289.59511,180.851847 L289.59511,185.487858 C289.930649,185.041361 290.331584,184.700694 290.797926,184.465848 C291.264268,184.231002 291.770412,184.113581 292.316373,184.113581 C293.453793,184.113581 294.376511,184.512233 295.084555,185.30955 C295.792599,186.106867 296.146615,187.282529 296.146615,188.836572 C296.146615,190.309433 295.796864,191.532934 295.097351,192.50711 C294.397838,193.481286 293.428202,193.968367 292.188414,193.968367 C291.494588,193.968367 290.908826,193.797308 290.43111,193.455187 C290.146755,193.252234 289.842499,192.927513 289.518335,192.481016 L289.518335,193.672636 L288.102254,193.672636 L288.102254,180.851847 Z M293.958515,191.576428 C294.37083,190.903783 294.576984,190.0166 294.576984,188.914853 C294.576984,187.934879 294.37083,187.123077 293.958515,186.479425 C293.5462,185.835773 292.939112,185.513952 292.137231,185.513952 C291.437718,185.513952 290.824942,185.777787 290.298885,186.305466 C289.772829,186.833145 289.509804,187.702932 289.509804,188.914853 C289.509804,189.790452 289.617857,190.500778 289.833967,191.045853 C290.237751,192.072217 290.99128,192.585391 292.094578,192.585391 C292.924894,192.585391 293.5462,192.249074 293.958515,191.576428 L293.958515,191.576428 Z M303.645017,184.357124 L305.342608,184.357124 C305.126498,184.954387 304.645945,186.317053 303.900936,188.445164 C303.3436,190.045596 302.877265,191.350276 302.501916,192.359244 C301.614729,194.736698 300.989157,196.186343 300.625183,196.708223 C300.261209,197.230103 299.635637,197.491039 298.74845,197.491039 C298.53234,197.491039 298.365995,197.482341 298.249409,197.464945 C298.132824,197.447549 297.989227,197.415657 297.818614,197.369268 L297.818614,195.942803 C298.085908,196.018185 298.279266,196.064574 298.398695,196.08197 C298.518124,196.099366 298.623334,196.108064 298.714327,196.108064 C298.998682,196.108064 299.20768,196.060226 299.341327,195.964548 C299.474974,195.86887 299.587292,195.751448 299.678286,195.61228 C299.706721,195.565891 299.809088,195.328149 299.985388,194.899048 C300.161688,194.469947 300.289646,194.151025 300.369265,193.942273 L296.991145,184.357124 L298.731389,184.357124 L301.179672,191.941742 L303.645017,184.357124 Z M320.124014,187.127423 L317.746108,180.071205 L315.218916,187.127423 L320.124014,187.127423 Z M316.637129,177.701012 L319.036362,177.701012 L324.719878,193.672636 L322.395288,193.672636 L320.806463,188.88876 L314.611111,188.88876 L312.915653,193.672636 L310.740348,193.672636 L316.637129,177.701012 Z M328.313396,182.028246 L328.313396,189.758555 C328.313396,190.352919 328.40581,190.83855 328.59064,191.215463 C328.931866,191.911303 329.568101,192.259218 330.499363,192.259218 C331.835831,192.259218 332.745754,191.650367 333.229157,190.432647 C333.492185,189.780297 333.623698,188.885141 333.623698,187.747153 L333.623698,182.028246 L335.543084,182.028246 L335.543084,193.672636 L333.73033,193.672636 L333.751657,191.954789 C333.502846,192.396938 333.193615,192.770221 332.823953,193.074651 C332.091739,193.683511 331.203143,193.987937 330.158139,193.987937 C328.530207,193.987937 327.421239,193.433448 326.831203,192.324453 C326.511304,191.730089 326.351356,190.936409 326.351356,189.943387 L326.351356,182.028246 L328.313396,182.028246 Z M338.923336,178.777384 L340.864049,178.777384 L340.864049,182.028246 L342.687466,182.028246 L342.687466,183.626495 L340.864049,183.626495 L340.864049,191.226336 C340.864049,191.632242 340.999115,191.904051 341.269253,192.041769 C341.418539,192.121501 341.667346,192.161366 342.015681,192.161366 C342.108096,192.161366 342.207619,192.159554 342.314252,192.15593 C342.420885,192.152306 342.545288,192.143245 342.687466,192.128749 L342.687466,193.672636 C342.467091,193.737871 342.237833,193.784984 341.999686,193.813978 C341.761538,193.842971 341.503846,193.857468 341.2266,193.857468 C340.330882,193.857468 339.723082,193.623712 339.403183,193.156195 C339.083283,192.688677 338.923336,192.081638 338.923336,191.33506 L338.923336,183.626495 L337.377164,183.626495 L337.377164,182.028246 L338.923336,182.028246 L338.923336,178.777384 Z M351.756566,190.938216 C352.229306,189.956066 352.465672,188.863396 352.465672,187.660173 C352.465672,186.572923 352.295062,185.688639 351.953836,185.007296 C351.413562,183.934543 350.482313,183.398174 349.160063,183.398174 C347.987099,183.398174 347.134047,183.854812 346.600881,184.768102 C346.067716,185.681392 345.801137,186.783123 345.801137,188.073326 C345.801137,189.312791 346.067716,190.345663 346.600881,191.171973 C347.134047,191.998283 347.97999,192.411432 349.138736,192.411432 C350.411225,192.411432 351.283826,191.920365 351.756566,190.938216 L351.756566,190.938216 Z M352.945519,183.191598 C353.962088,184.191868 354.470365,185.663257 354.470365,187.605811 C354.470365,189.483129 354.022512,191.034249 353.126794,192.259218 C352.231076,193.484186 350.841312,194.096661 348.957461,194.096661 C347.3864,194.096661 346.138811,193.554857 345.214658,192.471231 C344.290504,191.387605 343.828434,189.932524 343.828434,188.105943 C343.828434,186.148893 344.315385,184.590525 345.2893,183.430791 C346.263216,182.271058 347.571229,181.6912 349.213379,181.6912 C350.684916,181.6912 351.92895,182.191327 352.945519,183.191598 L352.945519,183.191598 Z M356.752302,182.028246 L358.650361,182.028246 L358.650361,183.680858 C359.105329,183.108239 359.517638,182.691466 359.887299,182.430526 C360.519989,181.988378 361.237974,181.767307 362.041277,181.767307 C362.951213,181.767307 363.683416,181.995626 364.237908,182.452271 C364.550698,182.713211 364.835049,183.097367 365.090968,183.60475 C365.517501,182.981394 366.018669,182.519319 366.594488,182.218514 C367.170306,181.917708 367.817204,181.767307 368.5352,181.767307 C370.070717,181.767307 371.115706,182.332669 371.670198,183.463409 C371.96877,184.072269 372.118055,184.891318 372.118055,185.920582 L372.118055,193.672636 L370.124026,193.672636 L370.124026,185.583536 C370.124026,184.807964 369.933866,184.275219 369.553541,183.985286 C369.173217,183.695353 368.70937,183.550388 368.161986,183.550388 C367.408446,183.550388 366.759771,183.8077 366.215942,184.322332 C365.672113,184.836964 365.400203,185.695878 365.400203,186.899102 L365.400203,193.672636 L363.448827,193.672636 L363.448827,186.072796 C363.448827,185.282727 363.356413,184.706494 363.171582,184.344077 C362.880118,183.800452 362.336298,183.528643 361.540104,183.528643 C360.814999,183.528643 360.155661,183.814948 359.56207,184.387567 C358.968479,184.960185 358.671688,185.996681 358.671688,187.497086 L358.671688,193.672636 L356.752302,193.672636 L356.752302,182.028246 Z M382.093531,190.938216 C382.566271,189.956066 382.802638,188.863396 382.802638,187.660173 C382.802638,186.572923 382.632027,185.688639 382.290802,185.007296 C381.750527,183.934543 380.819279,183.398174 379.497028,183.398174 C378.324064,183.398174 377.471012,183.854812 376.937847,184.768102 C376.404681,185.681392 376.138102,186.783123 376.138102,188.073326 C376.138102,189.312791 376.404681,190.345663 376.937847,191.171973 C377.471012,191.998283 378.316955,192.411432 379.475702,192.411432 C380.74819,192.411432 381.620791,191.920365 382.093531,190.938216 L382.093531,190.938216 Z M383.282484,183.191598 C384.299053,184.191868 384.80733,185.663257 384.80733,187.605811 C384.80733,189.483129 384.359478,191.034249 383.46376,192.259218 C382.568042,193.484186 381.178278,194.096661 379.294426,194.096661 C377.723365,194.096661 376.475777,193.554857 375.551623,192.471231 C374.62747,191.387605 374.1654,189.932524 374.1654,188.105943 C374.1654,186.148893 374.65235,184.590525 375.626266,183.430791 C376.600182,182.271058 377.908195,181.6912 379.550345,181.6912 C381.021881,181.6912 382.265916,182.191327 383.282484,183.191598 L383.282484,183.191598 Z M387.473144,178.777384 L389.413857,178.777384 L389.413857,182.028246 L391.237274,182.028246 L391.237274,183.626495 L389.413857,183.626495 L389.413857,191.226336 C389.413857,191.632242 389.548924,191.904051 389.819061,192.041769 C389.968347,192.121501 390.217154,192.161366 390.565489,192.161366 C390.657904,192.161366 390.757427,192.159554 390.86406,192.15593 C390.970693,192.152306 391.095097,192.143245 391.237274,192.128749 L391.237274,193.672636 C391.016899,193.737871 390.787641,193.784984 390.549494,193.813978 C390.311347,193.842971 390.053654,193.857468 389.776408,193.857468 C388.88069,193.857468 388.27289,193.623712 387.952991,193.156195 C387.633092,192.688677 387.473144,192.081638 387.473144,191.33506 L387.473144,183.626495 L385.926972,183.626495 L385.926972,182.028246 L387.473144,182.028246 L387.473144,178.777384 Z M393.15666,182.082608 L395.108036,182.082608 L395.108036,193.672636 L393.15666,193.672636 L393.15666,182.082608 Z M393.15666,177.701012 L395.108036,177.701012 L395.108036,179.918991 L393.15666,179.918991 L393.15666,177.701012 Z M398.946809,182.028246 L401.9965,191.509019 L405.184814,182.028246 L407.285475,182.028246 L402.97752,193.672636 L400.930174,193.672636 L396.718188,182.028246 L398.946809,182.028246 Z M416.040009,182.348983 C416.800659,182.736769 417.380023,183.238708 417.77812,183.854817 C418.161999,184.441932 418.417915,185.126889 418.545875,185.909709 C418.659617,186.446086 418.716487,187.301376 418.716487,188.475607 L410.34583,188.475607 C410.381375,189.657085 410.655062,190.60479 411.166901,191.318751 C411.67874,192.032712 412.471367,192.389687 413.544807,192.389687 C414.547158,192.389687 415.346895,192.052645 415.94404,191.37855 C416.285266,190.98714 416.526964,190.534126 416.669141,190.019494 L418.556538,190.019494 C418.506776,190.447146 418.341497,190.923716 418.060696,191.449221 C417.779896,191.974725 417.465333,192.404182 417.116998,192.737606 C416.534071,193.317472 415.812531,193.708876 414.952357,193.91183 C414.49028,194.027803 413.967786,194.085789 413.384858,194.085789 C411.963084,194.085789 410.758148,193.558481 409.770014,192.503848 C408.781881,191.449215 408.287822,189.972389 408.287822,188.073326 C408.287822,186.203256 408.785435,184.684753 409.780678,183.517771 C410.77592,182.350789 412.076824,181.767307 413.68343,181.767307 C414.493841,181.767307 415.27936,181.961197 416.040009,182.348983 L416.040009,182.348983 Z M416.743784,186.920847 C416.665587,186.072792 416.484313,185.395083 416.199958,184.887699 C415.673902,183.945416 414.795969,183.474281 413.566134,183.474281 C412.684633,183.474281 411.945322,183.798639 411.348176,184.447365 C410.751031,185.096091 410.434691,185.920577 410.399146,186.920847 L416.743784,186.920847 Z M433.282496,184.452801 C434.178214,184.452801 434.874873,184.325957 435.372494,184.072266 C436.15447,183.673607 436.545452,182.956033 436.545452,181.919521 C436.545452,180.875761 436.129589,180.172683 435.297851,179.810267 C434.828665,179.607313 434.132006,179.505838 433.207853,179.505838 L429.422397,179.505838 L429.422397,184.452801 L433.282496,184.452801 Z M433.996934,191.82432 C435.297858,191.82432 436.225552,191.440164 436.780044,190.671841 C437.128379,190.186202 437.302543,189.599096 437.302543,188.910504 C437.302543,187.750771 436.794267,186.960714 435.777698,186.540311 C435.237423,186.315613 434.522992,186.203265 433.634383,186.203265 L429.422397,186.203265 L429.422397,191.82432 L433.996934,191.82432 Z M427.343061,177.701012 L434.071577,177.701012 C435.905666,177.701012 437.210125,178.259125 437.984992,179.375369 C438.43996,180.034967 438.66744,180.796031 438.66744,181.658583 C438.66744,182.666101 438.386644,183.492399 437.825043,184.1375 C437.533579,184.478172 437.114162,184.789846 436.566779,185.072531 C437.370081,185.384209 437.970772,185.735748 438.368869,186.127158 C439.072647,186.822998 439.424531,187.783388 439.424531,189.008356 C439.424531,190.03762 439.108191,190.969017 438.475502,191.802575 C437.530021,193.049289 436.026517,193.672636 433.964944,193.672636 L427.343061,193.672636 L427.343061,177.701012 Z M443.625855,182.028246 L443.625855,189.758555 C443.625855,190.352919 443.718269,190.83855 443.903099,191.215463 C444.244325,191.911303 444.88056,192.259218 445.811822,192.259218 C447.14829,192.259218 448.058213,191.650367 448.541616,190.432647 C448.804644,189.780297 448.936157,188.885141 448.936157,187.747153 L448.936157,182.028246 L450.855543,182.028246 L450.855543,193.672636 L449.042789,193.672636 L449.064116,191.954789 C448.815305,192.396938 448.506074,192.770221 448.136412,193.074651 C447.404198,193.683511 446.515602,193.987937 445.470598,193.987937 C443.842666,193.987937 442.733698,193.433448 442.143662,192.324453 C441.823763,191.730089 441.663815,190.936409 441.663815,189.943387 L441.663815,182.028246 L443.625855,182.028246 Z M454.992886,190.019494 C455.049757,190.671844 455.209705,191.171972 455.472733,191.519892 C455.956136,192.150497 456.794971,192.465794 457.989262,192.465794 C458.700149,192.465794 459.32572,192.308146 459.865995,191.992843 C460.406269,191.67754 460.676402,191.190097 460.676402,190.530499 C460.676402,190.030364 460.459585,189.649832 460.025944,189.388892 C459.748698,189.229429 459.201322,189.044599 458.383802,188.834397 L456.858956,188.442989 C455.885041,188.196546 455.167055,187.921113 454.704978,187.616683 C453.880349,187.087555 453.468041,186.355484 453.468041,185.420449 C453.468041,184.318702 453.857246,183.427171 454.635667,182.745827 C455.414089,182.064484 456.460855,181.723817 457.775996,181.723817 C459.496344,181.723817 460.736824,182.238441 461.497473,183.267705 C461.973768,183.920055 462.204802,184.623133 462.190585,185.376959 L460.377831,185.376959 C460.342287,184.934811 460.189448,184.532534 459.919311,184.170118 C459.478561,183.655486 458.714368,183.398174 457.626711,183.398174 C456.901606,183.398174 456.352453,183.539514 455.979238,183.822199 C455.606022,184.104884 455.419417,184.478168 455.419417,184.942061 C455.419417,185.449445 455.664669,185.855345 456.155181,186.159775 C456.439536,186.340984 456.858954,186.500445 457.413446,186.638163 L458.682373,186.953464 C460.061495,187.294136 460.985634,187.62393 461.45482,187.942857 C462.201252,188.442992 462.574462,189.229424 462.574462,190.302178 C462.574462,191.338689 462.188811,192.233845 461.417499,192.987672 C460.646186,193.741499 459.471462,194.118406 457.893292,194.118406 C456.194271,194.118406 454.991113,193.72519 454.28378,192.938746 C453.576447,192.152302 453.197905,191.179227 453.148143,190.019494 L454.992886,190.019494 Z M464.771093,182.082608 L466.722469,182.082608 L466.722469,193.672636 L464.771093,193.672636 L464.771093,182.082608 Z M464.771093,177.701012 L466.722469,177.701012 L466.722469,179.918991 L464.771093,179.918991 L464.771093,177.701012 Z M469.622875,182.028246 L471.446292,182.028246 L471.446292,183.680858 C471.986566,182.999514 472.558822,182.510259 473.163076,182.213077 C473.76733,181.915896 474.439109,181.767307 475.178431,181.767307 C476.799255,181.767307 477.894005,182.343541 478.462715,183.496026 C478.775505,184.126631 478.931898,185.029035 478.931898,186.203265 L478.931898,193.672636 L476.980522,193.672636 L476.980522,186.333735 C476.980522,185.623398 476.877445,185.050788 476.671287,184.615888 C476.330062,183.891055 475.711599,183.528643 474.815881,183.528643 C474.360913,183.528643 473.987703,183.575757 473.696239,183.669985 C473.170182,183.829449 472.708112,184.14837 472.310015,184.62676 C471.990116,185.010922 471.782185,185.407762 471.686215,185.817293 C471.590245,186.226824 471.542261,186.812118 471.542261,187.573193 L471.542261,193.672636 L469.622875,193.672636 L469.622875,182.028246 Z M488.880716,182.348983 C489.641366,182.736769 490.22073,183.238708 490.618827,183.854817 C491.002706,184.441932 491.258622,185.126889 491.386582,185.909709 C491.500324,186.446086 491.557194,187.301376 491.557194,188.475607 L483.186537,188.475607 C483.222082,189.657085 483.495769,190.60479 484.007608,191.318751 C484.519447,192.032712 485.312074,192.389687 486.385514,192.389687 C487.387866,192.389687 488.187602,192.052645 488.784747,191.37855 C489.125973,190.98714 489.367671,190.534126 489.509849,190.019494 L491.397245,190.019494 C491.347483,190.447146 491.182204,190.923716 490.901404,191.449221 C490.620603,191.974725 490.30604,192.404182 489.957705,192.737606 C489.374778,193.317472 488.653238,193.708876 487.793064,193.91183 C487.330987,194.027803 486.808493,194.085789 486.225566,194.085789 C484.803791,194.085789 483.598855,193.558481 482.610721,192.503848 C481.622588,191.449215 481.128529,189.972389 481.128529,188.073326 C481.128529,186.203256 481.626142,184.684753 482.621385,183.517771 C483.616627,182.350789 484.917531,181.767307 486.524137,181.767307 C487.334548,181.767307 488.120067,181.961197 488.880716,182.348983 L488.880716,182.348983 Z M489.584491,186.920847 C489.506294,186.072792 489.32502,185.395083 489.040665,184.887699 C488.514609,183.945416 487.636676,183.474281 486.406841,183.474281 C485.525341,183.474281 484.786029,183.798639 484.188883,184.447365 C483.591738,185.096091 483.275398,185.920577 483.239854,186.920847 L489.584491,186.920847 Z M495.054742,190.019494 C495.111613,190.671844 495.27156,191.171972 495.534589,191.519892 C496.017992,192.150497 496.856827,192.465794 498.051117,192.465794 C498.762005,192.465794 499.387576,192.308146 499.92785,191.992843 C500.468125,191.67754 500.738258,191.190097 500.738258,190.530499 C500.738258,190.030364 500.521441,189.649832 500.087799,189.388892 C499.810553,189.229429 499.263178,189.044599 498.445658,188.834397 L496.920812,188.442989 C495.946896,188.196546 495.228911,187.921113 494.766834,187.616683 C493.942205,187.087555 493.529896,186.355484 493.529896,185.420449 C493.529896,184.318702 493.919101,183.427171 494.697523,182.745827 C495.475945,182.064484 496.522711,181.723817 497.837852,181.723817 C499.5582,181.723817 500.798679,182.238441 501.559329,183.267705 C502.035623,183.920055 502.266658,184.623133 502.25244,185.376959 L500.439687,185.376959 C500.404142,184.934811 500.251304,184.532534 499.981167,184.170118 C499.540417,183.655486 498.776224,183.398174 497.688567,183.398174 C496.963461,183.398174 496.414309,183.539514 496.041093,183.822199 C495.667878,184.104884 495.481272,184.478168 495.481272,184.942061 C495.481272,185.449445 495.726525,185.855345 496.217037,186.159775 C496.501392,186.340984 496.920809,186.500445 497.475301,186.638163 L498.744229,186.953464 C500.12335,187.294136 501.04749,187.62393 501.516676,187.942857 C502.263107,188.442992 502.636318,189.229424 502.636318,190.302178 C502.636318,191.338689 502.250667,192.233845 501.479354,192.987672 C500.708042,193.741499 499.533318,194.118406 497.955148,194.118406 C496.256127,194.118406 495.052968,193.72519 494.345636,192.938746 C493.638303,192.152302 493.259761,191.179227 493.209999,190.019494 L495.054742,190.019494 Z M505.973917,190.019494 C506.030788,190.671844 506.190735,191.171972 506.453764,191.519892 C506.937167,192.150497 507.776002,192.465794 508.970292,192.465794 C509.68118,192.465794 510.306751,192.308146 510.847025,191.992843 C511.3873,191.67754 511.657433,191.190097 511.657433,190.530499 C511.657433,190.030364 511.440616,189.649832 511.006974,189.388892 C510.729728,189.229429 510.182353,189.044599 509.364833,188.834397 L507.839987,188.442989 C506.866071,188.196546 506.148086,187.921113 505.686009,187.616683 C504.86138,187.087555 504.449071,186.355484 504.449071,185.420449 C504.449071,184.318702 504.838276,183.427171 505.616698,182.745827 C506.39512,182.064484 507.441886,181.723817 508.757027,181.723817 C510.477374,181.723817 511.717854,182.238441 512.478504,183.267705 C512.954798,183.920055 513.185833,184.623133 513.171615,185.376959 L511.358862,185.376959 C511.323317,184.934811 511.170479,184.532534 510.900342,184.170118 C510.459592,183.655486 509.695399,183.398174 508.607742,183.398174 C507.882636,183.398174 507.333484,183.539514 506.960268,183.822199 C506.587052,184.104884 506.400447,184.478168 506.400447,184.942061 C506.400447,185.449445 506.6457,185.855345 507.136212,186.159775 C507.420567,186.340984 507.839984,186.500445 508.394476,186.638163 L509.663404,186.953464 C511.042525,187.294136 511.966665,187.62393 512.435851,187.942857 C513.182282,188.442992 513.555493,189.229424 513.555493,190.302178 C513.555493,191.338689 513.169842,192.233845 512.398529,192.987672 C511.627217,193.741499 510.452493,194.118406 508.874323,194.118406 C507.175302,194.118406 505.972143,193.72519 505.264811,192.938746 C504.557478,192.152302 504.178936,191.179227 504.129174,190.019494 L505.973917,190.019494 Z M523.461658,188.519096 C523.51142,189.425138 523.721129,190.160833 524.09079,190.726203 C524.794569,191.78446 526.035049,192.31358 527.812267,192.31358 C528.608461,192.31358 529.333555,192.197609 529.987571,191.965662 C531.252951,191.516265 531.885631,190.711712 531.885631,189.551979 C531.885631,188.682179 531.619052,188.062455 531.085887,187.69279 C530.545612,187.330374 529.699669,187.015076 528.548032,186.746888 L526.426044,186.257627 C525.039813,185.938701 524.058803,185.587162 523.482985,185.203 C522.487742,184.536153 521.990129,183.539522 521.990129,182.213077 C521.990129,180.777907 522.477079,179.600071 523.450995,178.679532 C524.424911,177.758994 525.804011,177.298732 527.588339,177.298732 C529.230488,177.298732 530.625584,177.70282 531.773667,178.511009 C532.92175,179.319199 533.495783,180.611195 533.495783,182.387036 L531.501754,182.387036 C531.395121,181.531733 531.16764,180.875769 530.819305,180.419124 C530.172398,179.585565 529.074093,179.168792 527.524359,179.168792 C526.273197,179.168792 525.373938,179.436977 524.826555,179.973353 C524.279172,180.50973 524.005484,181.133077 524.005484,181.843414 C524.005484,182.626234 524.325379,183.198844 524.965177,183.561261 C525.384601,183.793207 526.333621,184.083136 527.812267,184.431056 L530.008898,184.942061 C531.06812,185.188505 531.885628,185.525547 532.461447,185.953199 C533.456689,186.699777 533.954303,187.783387 533.954303,189.20406 C533.954303,190.972654 533.3234,192.237469 532.061575,192.998544 C530.79975,193.759619 529.333567,194.140151 527.662981,194.140151 C525.71515,194.140151 524.19032,193.632775 523.088444,192.618009 C521.986569,191.61049 521.446303,190.2442 521.467629,188.519096 L523.461658,188.519096 Z M543.535239,190.938216 C544.007979,189.956066 544.244346,188.863396 544.244346,187.660173 C544.244346,186.572923 544.073735,185.688639 543.732509,185.007296 C543.192235,183.934543 542.260987,183.398174 540.938736,183.398174 C539.765772,183.398174 538.91272,183.854812 538.379554,184.768102 C537.846389,185.681392 537.57981,186.783123 537.57981,188.073326 C537.57981,189.312791 537.846389,190.345663 538.379554,191.171973 C538.91272,191.998283 539.758663,192.411432 540.91741,192.411432 C542.189898,192.411432 543.062499,191.920365 543.535239,190.938216 L543.535239,190.938216 Z M544.724192,183.191598 C545.740761,184.191868 546.249038,185.663257 546.249038,187.605811 C546.249038,189.483129 545.801186,191.034249 544.905468,192.259218 C544.00975,193.484186 542.619986,194.096661 540.736134,194.096661 C539.165073,194.096661 537.917485,193.554857 536.993331,192.471231 C536.069178,191.387605 535.607108,189.932524 535.607108,188.105943 C535.607108,186.148893 536.094058,184.590525 537.067974,183.430791 C538.04189,182.271058 539.349903,181.6912 540.992052,181.6912 C542.463589,181.6912 543.707623,182.191327 544.724192,183.191598 L544.724192,183.191598 Z M548.584291,177.701012 L550.503677,177.701012 L550.503677,193.672636 L548.584291,193.672636 L548.584291,177.701012 Z M555.302143,182.028246 L555.302143,189.758555 C555.302143,190.352919 555.394557,190.83855 555.579388,191.215463 C555.920614,191.911303 556.556848,192.259218 557.488111,192.259218 C558.824579,192.259218 559.734501,191.650367 560.217904,190.432647 C560.480933,189.780297 560.612445,188.885141 560.612445,187.747153 L560.612445,182.028246 L562.531831,182.028246 L562.531831,193.672636 L560.719077,193.672636 L560.740404,191.954789 C560.491593,192.396938 560.182362,192.770221 559.812701,193.074651 C559.080487,193.683511 558.191891,193.987937 557.146886,193.987937 C555.518954,193.987937 554.409987,193.433448 553.81995,192.324453 C553.500051,191.730089 553.340104,190.936409 553.340104,189.943387 L553.340104,182.028246 L555.302143,182.028246 Z M565.912084,178.777384 L567.852796,178.777384 L567.852796,182.028246 L569.676213,182.028246 L569.676213,183.626495 L567.852796,183.626495 L567.852796,191.226336 C567.852796,191.632242 567.987863,191.904051 568.258,192.041769 C568.407286,192.121501 568.656093,192.161366 569.004428,192.161366 C569.096843,192.161366 569.196366,192.159554 569.302999,192.15593 C569.409632,192.152306 569.534036,192.143245 569.676213,192.128749 L569.676213,193.672636 C569.455838,193.737871 569.22658,193.784984 568.988433,193.813978 C568.750286,193.842971 568.492593,193.857468 568.215347,193.857468 C567.319629,193.857468 566.711829,193.623712 566.39193,193.156195 C566.072031,192.688677 565.912084,192.081638 565.912084,191.33506 L565.912084,183.626495 L564.365911,183.626495 L564.365911,182.028246 L565.912084,182.028246 L565.912084,178.777384 Z M571.595599,182.082608 L573.546975,182.082608 L573.546975,193.672636 L571.595599,193.672636 L571.595599,182.082608 Z M571.595599,177.701012 L573.546975,177.701012 L573.546975,179.918991 L571.595599,179.918991 L571.595599,177.701012 Z M583.597095,190.938216 C584.069835,189.956066 584.306202,188.863396 584.306202,187.660173 C584.306202,186.572923 584.135591,185.688639 583.794365,185.007296 C583.254091,183.934543 582.322842,183.398174 581.000592,183.398174 C579.827628,183.398174 578.974576,183.854812 578.44141,184.768102 C577.908245,185.681392 577.641666,186.783123 577.641666,188.073326 C577.641666,189.312791 577.908245,190.345663 578.44141,191.171973 C578.974576,191.998283 579.820519,192.411432 580.979265,192.411432 C582.251754,192.411432 583.124355,191.920365 583.597095,190.938216 L583.597095,190.938216 Z M584.786048,183.191598 C585.802617,184.191868 586.310894,185.663257 586.310894,187.605811 C586.310894,189.483129 585.863041,191.034249 584.967323,192.259218 C584.071605,193.484186 582.681841,194.096661 580.79799,194.096661 C579.226929,194.096661 577.97934,193.554857 577.055187,192.471231 C576.131033,191.387605 575.668964,189.932524 575.668964,188.105943 C575.668964,186.148893 576.155914,184.590525 577.12983,183.430791 C578.103745,182.271058 579.411758,181.6912 581.053908,181.6912 C582.525445,181.6912 583.769479,182.191327 584.786048,183.191598 L584.786048,183.191598 Z M588.592831,182.028246 L590.416248,182.028246 L590.416248,183.680858 C590.956522,182.999514 591.528778,182.510259 592.133032,182.213077 C592.737286,181.915896 593.409065,181.767307 594.148388,181.767307 C595.769211,181.767307 596.863961,182.343541 597.432671,183.496026 C597.745461,184.126631 597.901854,185.029035 597.901854,186.203265 L597.901854,193.672636 L595.950478,193.672636 L595.950478,186.333735 C595.950478,185.623398 595.847401,185.050788 595.641243,184.615888 C595.300018,183.891055 594.681555,183.528643 593.785837,183.528643 C593.330869,183.528643 592.957659,183.575757 592.666195,183.669985 C592.140138,183.829449 591.678068,184.14837 591.279971,184.62676 C590.960072,185.010922 590.752141,185.407762 590.656171,185.817293 C590.560201,186.226824 590.512217,186.812118 590.512217,187.573193 L590.512217,193.672636 L588.592831,193.672636 L588.592831,182.028246 Z M601.879249,190.019494 C601.93612,190.671844 602.096067,191.171972 602.359095,191.519892 C602.842499,192.150497 603.681333,192.465794 604.875624,192.465794 C605.586511,192.465794 606.212083,192.308146 606.752357,191.992843 C607.292631,191.67754 607.562765,191.190097 607.562765,190.530499 C607.562765,190.030364 607.345947,189.649832 606.912306,189.388892 C606.63506,189.229429 606.087685,189.044599 605.270164,188.834397 L603.745319,188.442989 C602.771403,188.196546 602.053418,187.921113 601.591341,187.616683 C600.766711,187.087555 600.354403,186.355484 600.354403,185.420449 C600.354403,184.318702 600.743608,183.427171 601.52203,182.745827 C602.300451,182.064484 603.347217,181.723817 604.662359,181.723817 C606.382706,181.723817 607.623186,182.238441 608.383835,183.267705 C608.86013,183.920055 609.091165,184.623133 609.076947,185.376959 L607.264193,185.376959 C607.228649,184.934811 607.075811,184.532534 606.805673,184.170118 C606.364923,183.655486 605.600731,183.398174 604.513073,183.398174 C603.787968,183.398174 603.238816,183.539514 602.8656,183.822199 C602.492384,184.104884 602.305779,184.478168 602.305779,184.942061 C602.305779,185.449445 602.551031,185.855345 603.041544,186.159775 C603.325899,186.340984 603.745316,186.500445 604.299808,186.638163 L605.568736,186.953464 C606.947857,187.294136 607.871997,187.62393 608.341182,187.942857 C609.087614,188.442992 609.460824,189.229424 609.460824,190.302178 C609.460824,191.338689 609.075174,192.233845 608.303861,192.987672 C607.532548,193.741499 606.357824,194.118406 604.779655,194.118406 C603.080634,194.118406 601.877475,193.72519 601.170142,192.938746 C600.462809,192.152302 600.084267,191.179227 600.034505,190.019494 L601.879249,190.019494 Z" id="by-Automotive-Busine" sketch:type="MSShapeGroup"></path>
            <path d="M247.740335,99.0292355 L247.740335,52.3279092 L281.06494,52.3279092 C290.739874,52.3279092 297.816803,54.3183402 302.295939,58.299262 C306.775075,62.2801838 309.014609,68.0732293 309.014609,75.6785724 C309.014609,83.2839154 306.775075,89.1066689 302.295939,93.1470074 C297.816803,97.1873459 290.739874,99.148069 281.06494,99.0292355 L247.740335,99.0292355 Z M230.719704,38.0679623 L230.719704,165.337989 L247.740335,165.337989 L247.740335,113.289182 L286.798206,113.289182 C299.698117,113.408016 309.462487,110.140144 316.091608,103.485469 C322.72073,96.8307937 326.035241,87.5619209 326.035241,75.6785724 C326.035241,63.7952238 322.72073,54.5560589 316.091608,47.9608005 C309.462487,41.365542 299.698117,38.0679623 286.798206,38.0679623 L230.719704,38.0679623 Z M409.04814,165.337989 L409.04814,73.1830816 L393.819154,73.1830816 L393.819154,125.231888 C393.819154,129.39106 393.251805,133.223382 392.117091,136.72897 C390.982376,140.234558 389.28033,143.294474 387.010901,145.908811 C384.741472,148.523148 381.904729,150.543287 378.500585,151.969289 C375.096442,153.39529 371.06528,154.108281 366.406979,154.108281 C360.554241,154.108281 355.955731,152.444637 352.611309,149.117299 C349.266888,145.789962 347.594702,141.274357 347.594702,135.57035 L347.594702,73.1830816 L332.365716,73.1830816 L332.365716,133.787856 C332.365716,138.778863 332.873344,143.324175 333.888614,147.42393 C334.903885,151.523686 336.665652,155.058929 339.173968,158.029766 C341.682285,161.000603 344.966935,163.288113 349.028018,164.892365 C353.089101,166.496618 358.165379,167.298732 364.257004,167.298732 C371.065291,167.298732 376.977662,165.961875 381.994294,163.288121 C387.010926,160.614368 391.13167,156.42555 394.356647,150.721543 L394.714977,150.721543 L394.714977,165.337989 L409.04814,165.337989 Z M420.932716,38.0679623 L420.932716,165.337989 L436.161702,165.337989 L436.161702,38.0679623 L420.932716,38.0679623 Z M457.18367,136.283347 L441.954684,136.283347 C442.193571,141.987354 443.387989,146.829746 445.537975,150.810668 C447.68796,154.79159 450.554564,158.000046 454.137873,160.436132 C457.721181,162.872218 461.841925,164.624986 466.500226,165.694487 C471.158527,166.763989 476.055643,167.298732 481.191718,167.298732 C485.85002,167.298732 490.538112,166.853113 495.256135,165.961861 C499.974158,165.07061 504.214343,163.49609 507.976818,161.238254 C511.739292,158.980418 514.785059,156.009625 517.114209,152.325787 C519.44336,148.641949 520.607918,144.007513 520.607918,138.422339 C520.607918,134.0255 519.741965,130.341717 518.010032,127.37088 C516.278099,124.400043 514.008705,121.934285 511.201779,119.973533 C508.394854,118.01278 505.169925,116.43826 501.526894,115.249925 C497.883863,114.06159 494.151306,113.051521 490.32911,112.219686 C486.745801,111.387852 483.162546,110.585738 479.579238,109.81332 C475.995929,109.040903 472.770999,108.090249 469.904352,106.961331 C467.037705,105.832413 464.678729,104.406432 462.827353,102.683347 C460.975977,100.960261 460.050302,98.7915828 460.050302,96.1772461 C460.050302,93.8005764 460.647512,91.8695612 461.841948,90.3841426 C463.036384,88.8987241 464.589128,87.710407 466.500226,86.8191559 C468.411324,85.9279048 470.531417,85.3040383 472.860567,84.9475379 C475.189718,84.5910374 477.488973,84.4127899 479.758402,84.4127899 C482.266718,84.4127899 484.745136,84.6801612 487.193731,85.2149119 C489.642325,85.7496626 491.881859,86.6111924 493.912401,87.7995273 C495.942943,88.9878621 497.615128,90.5623822 498.929008,92.5231347 C500.242888,94.4838872 501.01926,96.949645 501.258147,99.9204822 L516.487133,99.9204822 C516.128802,94.3353084 514.934384,89.671164 512.903842,85.9279092 C510.873301,82.1846544 508.155999,79.2138619 504.751856,77.0154424 C501.347712,74.8170229 497.435992,73.2722108 493.016578,72.3809596 C488.597164,71.4897085 483.75977,71.0440896 478.50425,71.0440896 C474.443167,71.0440896 470.352284,71.5491243 466.231479,72.559209 C462.110674,73.5692936 458.407977,75.1141057 455.123278,77.1936917 C451.838578,79.2732777 449.151137,81.9766989 447.060873,85.3040365 C444.97061,88.6313741 443.925494,92.6122362 443.925494,97.2467421 C443.925494,103.188416 445.418517,107.822853 448.404607,111.15019 C451.390698,114.477528 455.123255,117.062118 459.602391,118.904037 C464.081527,120.745956 468.948782,122.171936 474.204301,123.182021 C479.459821,124.192105 484.327076,125.321006 488.806212,126.568758 C493.285347,127.81651 497.017905,129.450446 500.003995,131.470615 C502.990086,133.490784 504.483109,136.461577 504.483109,140.383082 C504.483109,143.235085 503.766458,145.582011 502.333134,147.42393 C500.899811,149.265849 499.078323,150.662122 496.868616,151.61279 C494.658909,152.563458 492.240212,153.217032 489.612452,153.573533 C486.984692,153.930033 484.476414,154.108281 482.087541,154.108281 C478.982007,154.108281 475.966101,153.811201 473.039732,153.217034 C470.113363,152.622866 467.485643,151.642505 465.156492,150.27592 C462.827341,148.909335 460.946132,147.067443 459.512809,144.75019 C458.079485,142.432937 457.303113,139.610684 457.18367,136.283347 L457.18367,136.283347 Z M589.825147,110.437193 L536.613278,110.437193 C536.852166,106.872188 537.628538,103.515193 538.942417,100.366106 C540.256297,97.2170181 542.047925,94.4541811 544.317354,92.0775113 C546.586783,89.7008416 549.304084,87.8292423 552.46934,86.4626572 C555.634596,85.0960721 559.187991,84.4127899 563.129631,84.4127899 C566.951827,84.4127899 570.4455,85.0960721 573.610756,86.4626572 C576.776012,87.8292423 579.523175,89.6711337 581.852325,91.9883867 C584.181476,94.3056396 586.032824,97.0684767 587.406426,100.276981 C588.780028,103.485485 589.58626,106.872188 589.825147,110.437193 L589.825147,110.437193 Z M604.51664,136.105098 L589.466818,136.105098 C588.152938,142.165605 585.435637,146.68121 581.314832,149.652047 C577.194027,152.622884 571.908725,154.108281 565.45877,154.108281 C560.442137,154.108281 556.08251,153.276459 552.379758,151.61279 C548.677006,149.949121 545.631239,147.721027 543.242366,144.92844 C540.853494,142.135853 539.121587,138.927397 538.046595,135.302976 C536.971602,131.678554 536.493835,127.846232 536.613278,123.805893 L605.949956,123.805893 C606.188844,118.220719 605.681216,112.33855 604.427058,106.159209 C603.1729,99.9798677 600.903505,94.275946 597.618805,89.0472726 C594.334105,83.8185993 589.974478,79.51095 584.539793,76.1241957 C579.105108,72.7374414 572.267063,71.0440896 564.025453,71.0440896 C557.694941,71.0440896 551.872152,72.2324066 546.55691,74.6090763 C541.241669,76.985746 536.643159,80.3130337 532.761241,84.5910392 C528.879323,88.8690447 525.863417,93.919392 523.713431,99.7422328 C521.563446,105.565074 520.48847,111.981986 520.48847,118.993161 C520.727357,126.004337 521.772473,132.480665 523.623849,138.422339 C525.475225,144.364013 528.252248,149.473776 531.955,153.751782 C535.657753,158.029787 540.226403,161.357075 545.661088,163.733745 C551.095773,166.110414 557.515771,167.298732 564.921276,167.298732 C575.432315,167.298732 584.151569,164.684434 591.079299,159.455761 C598.00703,154.227087 602.486098,146.443611 604.51664,136.105098 L604.51664,136.105098 Z" id="Pulse" sketch:type="MSShapeGroup"></path>
            <path d="M209.71075,112.865223 C205.688432,167.181631 160.344844,210 105.000446,210 C47.0103011,210 0,162.989899 0,105 C0,47.0101013 47.0103011,0 105.000446,0 C161.216948,0 207.114978,44.1784458 209.869995,99.7109375 L160.037301,99.7109375 L144.078737,76.3730469 L128.40289,121.720215 L109.907694,27.2436523 L90.6434517,105.600098 L86.907596,96.512207 L60.047337,96.512207 C57.706256,91.0666634 52.2797792,87.2518044 45.959335,87.2518044 C37.4984551,87.2518044 30.6395567,94.087998 30.6395567,102.52087 C30.6395567,110.953742 37.4984551,117.789936 45.959335,117.789936 C51.8456184,117.789936 56.9565322,114.481173 59.5219348,109.62793 L78.3103915,109.62793 L94.7596801,146.298828 L108.555637,89.2670898 L125.527877,174.058105 L148.167134,105.275879 L153.417156,112.720215 L209.71075,112.865223 Z" id="icon" sketch:type="MSShapeGroup"></path>
        </g>
    </g>
</svg>