<?xml version="1.0" encoding="UTF-8" standalone="no"?>
<svg width="352px" height="80px" viewBox="0 0 352 80" version="1.1" xmlns="http://www.w3.org/2000/svg" xmlns:xlink="http://www.w3.org/1999/xlink" xmlns:sketch="http://www.bohemiancoding.com/sketch/ns">
    <!-- Generator: Sketch 3.3.2 (12043) - http://www.bohemiancoding.com/sketch -->
    <title>Automotive Sales Int + ASI + Line</title>
    <desc>Created with Sketch.</desc>
    <defs></defs>
    <g id="Page-1" stroke="none" stroke-width="1" fill="none" fill-rule="evenodd" sketch:type="MSPage">
        <g id="Desktop-HD" sketch:type="MSArtboardGroup" transform="translate(-543.000000, -230.000000)" fill="#FFFFFF">
            <g id="Landing" sketch:type="MSLayerGroup">
                <g id="Automotive-Sales-Int-+-ASI-+-Line" transform="translate(543.000000, 230.000000)" sketch:type="MSShapeGroup">
                    <g id="ASI-+-Line">
                        <path d="M174.410552,11.4991998 C174.477695,11.5004012 174.670188,11.5075225 174.982493,11.5253022 C175.542509,11.5571842 176.2114,11.6091941 176.983639,11.6860548 C179.236875,11.9103191 181.838041,12.2906113 184.743079,12.8645196 C193.117248,14.5188886 202.186599,17.3980216 211.605222,21.8009954 C214.761391,23.2764267 217.568132,25.0805749 228.302026,32.3100845 C228.692367,32.5729877 229.048013,32.812257 229.388998,33.0413266 C238.925195,39.4476412 244.159632,42.6081513 248.582969,44.2034533 C253.77102,46.0745536 261.649759,46.9914332 280.324052,48.4181456 C281.220429,48.4866287 284.355557,48.724883 284.416226,48.7295022 C286.058826,48.8545643 287.312821,48.9508919 288.533966,49.0461824 C307.314342,50.5116861 317.587588,51.8361386 323.415001,53.9378283 C329.411005,56.1003215 333.770071,59.0315761 336.792085,62.5111296 C338.936408,64.9801087 340.293259,67.5900038 341.035306,70.1825856 C341.290242,71.0732873 341.450449,71.8903468 341.535626,72.6079587 C341.58198,72.9984839 341.594404,73.2395473 341.593936,73.3037944 C341.594049,73.2903221 341.594049,73.2903221 341.594273,73.2734115 L341.521981,78.2728888 L351.520936,78.4174722 L351.593227,73.4179948 C351.593477,73.3992521 351.593477,73.3992521 351.59367,73.3766789 C351.597097,72.9064597 351.563209,72.2489436 351.46592,71.4292839 C351.319384,70.1947266 351.056306,68.8530265 350.649262,67.4308855 C349.520409,63.4868743 347.486123,59.5739344 344.342098,55.9538969 C340.179584,51.1611684 334.382223,47.262733 326.807656,44.5309217 C319.770492,41.9929283 309.166138,40.6257886 289.311939,39.0764904 C288.083444,38.9806263 286.823727,38.8838592 285.175396,38.7583607 C285.112952,38.7536065 281.979826,38.5155043 281.08583,38.4472031 C263.749968,37.1227466 255.889028,36.2079383 251.975624,34.7965467 C248.646531,33.59589 243.713324,30.6172606 234.965403,24.7405012 C234.62797,24.5138171 234.27556,24.2767254 233.888328,24.015916 C222.472716,16.3272545 219.708032,14.5501402 215.840091,12.7419733 C205.660586,7.98330598 195.821843,4.85992353 186.681182,3.05412945 C183.45603,2.41698069 180.539035,1.99051401 177.974043,1.73522079 C176.390807,1.57764152 175.248063,1.51258442 174.589448,1.50080016 L169.590248,1.41135209 L169.411352,11.4097518 L174.410552,11.4991998 L174.410552,11.4991998 Z" id="Shape"></path>
                        <path d="M59.2851563,49 L59.2851563,37.6906738 C59.2851563,37.6906738 39.1165689,34.0768083 27.2041017,44.3837891 C15.2916345,54.6907699 11.7729494,74.4047852 11.7729494,74.4047852 L0.0839843993,74.4047852 C0.0839843993,74.4047852 20.6375411,37.4448752 25.2226563,30.6376953 C31.4199304,21.4370627 49.5283203,0.9765625 49.5283203,0.9765625 L70.3945313,0.9765625 L70.3945313,49 L59.2851563,49 Z M56.6767578,7.88769531 C53.5302734,7.88769531 35.4082031,29.6992188 35.4082031,29.6992188 L59.8164063,29.6992188 C59.8164063,29.6992188 59.8232422,7.88769531 56.6767578,7.88769531 Z M105.966797,17.21875 C107.40821,18.2265675 109.136709,19.105465 111.152344,19.8554688 L116.320313,21.859375 C119.906268,23.2890696 122.642569,24.9882714 124.529297,26.9570313 C126.416025,28.9257911 127.359375,31.4570158 127.359375,34.5507812 C127.359375,37.6211091 126.80274,40.0761627 125.689453,41.9160156 C124.576166,43.7558686 122.712904,45.5312414 120.099609,47.2421875 C117.486315,48.9531336 113.496121,49.8085938 108.128906,49.8085938 C102.761692,49.8085938 77.8237305,49.0625007 76.4394531,49.0625007 L73.3564453,40.8725593 C83.1108397,41.6733405 102.023411,42.390625 107.320313,42.390625 C111.37502,42.390625 113.923823,41.593758 114.966797,40 C116.009771,38.406242 116.53125,37.0585993 116.53125,35.9570312 C116.53125,34.8554632 116.244143,33.9472692 115.669922,33.2324219 C115.0957,32.5175746 114.392582,31.8730497 113.560547,31.2988281 C112.728511,30.7246065 111.808599,30.2207053 110.800781,29.7871094 C109.792964,29.3535135 108.855473,28.937502 107.988281,28.5390625 L103.066406,26.3945312 C96.4569982,23.6757677 93.1523438,19.5508089 93.1523438,14.0195313 C93.1523438,9.21481973 95.0976368,5.72266715 98.9882813,3.54296875 C102.878926,1.36327035 107.203101,0.2734375 111.960938,0.2734375 C116.718774,0.2734375 146.550274,0.0410105859 150.32373,1.04882812 L150.32373,9.64257812 C147.065902,8.23632109 117.457052,7.5859375 113.332031,7.5859375 C109.207011,7.5859375 106.587896,8.27147752 105.474609,9.64257812 C104.361323,11.0136787 103.804688,12.20312 103.804688,13.2109375 C103.804688,14.8750083 104.525383,16.2109325 105.966797,17.21875 Z M154.269531,49 L154.269531,0.9765625 L164.921875,0.9765625 L164.921875,49 L154.269531,49 Z" id="ASI"></path>
                    </g>
                    <path d="M39.6005859,74 L38.0170898,69.8334961 L30.4926758,69.8334961 L28.8642578,74 L27.0898438,74 L33.2104492,58.6591797 L35.3442383,58.6591797 L41.4873047,74 L39.6005859,74 Z M34.2661133,60.1303711 L31.0205078,68.3623047 L37.4667969,68.3623047 L34.2661133,60.1303711 Z M47.5239258,74.2583008 C44.9783401,74.2583008 43.7055664,72.7159985 43.7055664,69.6313477 L43.7055664,62.5449219 L45.3901367,62.5449219 L45.3901367,69.328125 C45.3901367,70.3987684 45.5080555,71.1493305 45.7438965,71.579834 C45.9797375,72.0103374 46.2623681,72.3229157 46.5917969,72.5175781 C46.9212256,72.7122406 47.3741833,72.8095703 47.9506836,72.8095703 C49.021327,72.8095703 49.8055802,72.4202513 50.3034668,71.6416016 C50.8013534,70.8629518 51.050293,69.8859108 51.050293,68.7104492 L51.050293,62.5449219 L52.7011719,62.5449219 L52.7011719,71.3046875 C52.7011719,72.3678439 52.7386064,73.2662724 52.8134766,74 L51.2749023,74 L51.2299805,72.0234375 C50.4213827,73.5133538 49.1860435,74.2583008 47.5239258,74.2583008 L47.5239258,74.2583008 Z M60.1416016,74.2583008 C59.0260361,74.2583008 58.2941912,73.9326204 57.9460449,73.28125 C57.5978986,72.6298796 57.4238281,71.6902731 57.4238281,70.4624023 L57.4238281,63.8588867 L55.2675781,63.8588867 L55.2675781,62.5449219 L57.4238281,62.5449219 L57.4238281,59.9731445 L59.0859375,59.4003906 L59.0859375,62.5449219 L61.6801758,62.5449219 L61.6801758,63.8588867 L59.0859375,63.8588867 L59.0859375,70.9003906 C59.0859375,71.4095078 59.1813955,71.8549786 59.3723145,72.2368164 C59.5632334,72.6186543 59.9581676,72.8095703 60.5571289,72.8095703 C60.9314797,72.8095703 61.3619767,72.7084971 61.8486328,72.5063477 L61.9384766,73.9101562 C61.3694633,74.1422538 60.770511,74.2583008 60.1416016,74.2583008 L60.1416016,74.2583008 Z M65.3359375,64.0048828 C66.2942756,62.8818303 67.6232011,62.3203125 69.3227539,62.3203125 C71.0223067,62.3203125 72.3287715,62.8649848 73.2421875,63.9543457 C74.1556035,65.0437066 74.6123047,66.4568598 74.6123047,68.1938477 C74.6123047,69.9308355 74.1481166,71.375808 73.2197266,72.5288086 C72.2913365,73.6818092 70.9717696,74.2583008 69.2609863,74.2583008 C67.550203,74.2583008 66.2287644,73.6892961 65.2966309,72.5512695 C64.3644973,71.413243 63.8984375,69.985116 63.8984375,68.2668457 C63.8984375,66.5485754 64.3775994,65.1279353 65.3359375,64.0048828 L65.3359375,64.0048828 Z M71.9506836,65.0268555 C71.3666963,64.1583615 70.4757547,63.7241211 69.277832,63.7241211 C68.0799094,63.7241211 67.1833526,64.1658484 66.5881348,65.0493164 C65.9929169,65.9327844 65.6953125,67.1887126 65.6953125,68.8171387 C65.6953125,70.4455648 66.1314247,71.5255507 67.0036621,72.0571289 C67.8758995,72.5887071 68.6264617,72.8544922 69.2553711,72.8544922 C69.8842805,72.8544922 70.4252093,72.7159845 70.8781738,72.4389648 C71.3311383,72.1619452 71.7691222,71.6977572 72.1921387,71.0463867 C72.6151551,70.3950163 72.8266602,69.4479229 72.8266602,68.2050781 C72.8266602,66.9547464 72.5346709,65.8953494 71.9506836,65.0268555 L71.9506836,65.0268555 Z M77.7626953,65.2402344 C77.7626953,64.2519482 77.7215173,63.3535197 77.6391602,62.5449219 L79.1777344,62.5449219 L79.2563477,64.5214844 C80.0200233,63.0465421 81.1617763,62.3128255 82.6816406,62.3203125 C83.5725956,62.3203125 84.3025688,62.5486631 84.871582,63.0053711 C85.4405953,63.4620791 85.8224274,64.0310838 86.0170898,64.7124023 C86.4438498,63.6043239 87.0353152,62.9286308 87.7915039,62.6853027 C88.5476926,62.4419747 89.1653622,62.3203125 89.6445312,62.3203125 C90.1237003,62.3203125 90.5860167,62.419514 91.0314941,62.6179199 C91.4769716,62.8163259 91.9243142,63.177569 92.3735352,63.7016602 C92.8227562,64.2257513 93.0473633,65.0605411 93.0473633,66.2060547 L93.0473633,74 L91.3740234,74 L91.3740234,66.4980469 C91.3740234,65.21028 91.1026232,64.4297702 90.5598145,64.1564941 C90.0170057,63.883218 89.5060245,63.746582 89.0268555,63.746582 C88.1134394,63.746582 87.4209008,64.1396445 86.9492188,64.9257812 C86.4775367,65.711918 86.2416992,66.6739852 86.2416992,67.8120117 L86.2416992,74 L84.5683594,74 L84.5683594,66.4980469 C84.5683594,64.6637278 83.8159255,63.746582 82.3110352,63.746582 C81.337723,63.746582 80.6152367,64.1396445 80.1435547,64.9257812 C79.6718726,65.711918 79.4360352,66.6739852 79.4360352,67.8120117 L79.4360352,74 L77.7626953,74 L77.7626953,65.2402344 Z M97.6240234,64.0048828 C98.5823616,62.8818303 99.9112871,62.3203125 101.61084,62.3203125 C103.310393,62.3203125 104.616857,62.8649848 105.530273,63.9543457 C106.443689,65.0437066 106.900391,66.4568598 106.900391,68.1938477 C106.900391,69.9308355 106.436203,71.375808 105.507812,72.5288086 C104.579422,73.6818092 103.259856,74.2583008 101.549072,74.2583008 C99.838289,74.2583008 98.5168504,73.6892961 97.5847168,72.5512695 C96.6525832,71.413243 96.1865234,69.985116 96.1865234,68.2668457 C96.1865234,66.5485754 96.6656853,65.1279353 97.6240234,64.0048828 L97.6240234,64.0048828 Z M104.23877,65.0268555 C103.654782,64.1583615 102.763841,63.7241211 101.565918,63.7241211 C100.367995,63.7241211 99.4714385,64.1658484 98.8762207,65.0493164 C98.2810029,65.9327844 97.9833984,67.1887126 97.9833984,68.8171387 C97.9833984,70.4455648 98.4195106,71.5255507 99.291748,72.0571289 C100.163985,72.5887071 100.914548,72.8544922 101.543457,72.8544922 C102.172366,72.8544922 102.713295,72.7159845 103.16626,72.4389648 C103.619224,72.1619452 104.057208,71.6977572 104.480225,71.0463867 C104.903241,70.3950163 105.114746,69.4479229 105.114746,68.2050781 C105.114746,66.9547464 104.822757,65.8953494 104.23877,65.0268555 L104.23877,65.0268555 Z M113.633301,74.2583008 C112.517735,74.2583008 111.78589,73.9326204 111.437744,73.28125 C111.089598,72.6298796 110.915527,71.6902731 110.915527,70.4624023 L110.915527,63.8588867 L108.759277,63.8588867 L108.759277,62.5449219 L110.915527,62.5449219 L110.915527,59.9731445 L112.577637,59.4003906 L112.577637,62.5449219 L115.171875,62.5449219 L115.171875,63.8588867 L112.577637,63.8588867 L112.577637,70.9003906 C112.577637,71.4095078 112.673095,71.8549786 112.864014,72.2368164 C113.054933,72.6186543 113.449867,72.8095703 114.048828,72.8095703 C114.423179,72.8095703 114.853676,72.7084971 115.340332,72.5063477 L115.430176,73.9101562 C114.861163,74.1422538 114.26221,74.2583008 113.633301,74.2583008 L113.633301,74.2583008 Z M118.086426,59.9956055 L118.086426,57.996582 L119.759766,57.996582 L119.759766,59.9956055 L118.086426,59.9956055 Z M118.086426,74 L118.086426,62.5449219 L119.759766,62.5449219 L119.759766,74 L118.086426,74 Z M127.986328,74 L126.009766,74 L122.168945,62.5449219 L123.977051,62.5449219 L127.042969,72.5288086 L130.120117,62.5449219 L131.87207,62.5449219 L127.986328,74 Z M134.52832,72.1582031 C133.899411,71.3720664 133.584961,70.1292403 133.584961,68.4296875 C133.584961,66.7376217 134.02856,65.2963927 134.915771,64.105957 C135.802983,62.9155214 136.999016,62.3203125 138.503906,62.3203125 C140.008797,62.3203125 141.133704,62.8593696 141.878662,63.9375 C142.62362,65.0156304 142.996094,66.3857339 142.996094,68.0478516 L142.996094,68.7329102 L135.336914,68.7329102 C135.336914,69.9233458 135.662594,70.9153606 136.313965,71.7089844 C136.965335,72.5026081 137.874994,72.8994141 139.042969,72.8994141 C140.210943,72.8994141 141.281571,72.6298855 142.254883,72.0908203 L142.389648,73.6518555 C141.386388,74.0561544 140.315761,74.2583008 139.177734,74.2583008 C138.039708,74.2583008 137.137536,74.1048192 136.471191,73.7978516 C135.804847,73.4908839 135.15723,72.9443399 134.52832,72.1582031 L134.52832,72.1582031 Z M141.289062,67.4863281 C141.289062,65.8242104 140.952152,64.7685569 140.27832,64.3193359 C139.604489,63.8701149 138.898848,63.6455078 138.161377,63.6455078 C137.423906,63.6455078 136.768802,64.0572875 136.196045,64.8808594 C135.623288,65.7044312 135.336914,66.5729121 135.336914,67.4863281 L141.289062,67.4863281 Z M157.32666,59.9506836 C155.851718,59.9506836 154.938316,60.2408011 154.586426,60.8210449 C154.234536,61.4012887 154.058594,61.8860658 154.058594,62.2753906 C154.058594,62.9043 154.277586,63.4208964 154.715576,63.8251953 C155.153567,64.2294942 155.701982,64.5926091 156.36084,64.9145508 L157.944336,65.7680664 C159.014979,66.3520537 159.827308,66.9416474 160.381348,67.5368652 C160.935387,68.1320831 161.212402,68.8452107 161.212402,69.6762695 C161.212402,71.1661858 160.707036,72.3023236 159.696289,73.0847168 C158.685542,73.86711 157.45769,74.2583008 156.012695,74.2583008 C154.567701,74.2583008 153.332362,74.0411806 152.306641,73.6069336 L152.430176,71.8325195 C153.388514,72.4314809 154.605136,72.730957 156.080078,72.730957 C157.55502,72.730957 158.464679,72.3809443 158.809082,71.6809082 C159.153485,70.9808722 159.325684,70.4212261 159.325684,70.0019531 C159.325684,69.3131476 159.089846,68.7535015 158.618164,68.322998 C158.146482,67.8924946 157.468917,67.4451521 156.585449,66.980957 L155.001953,66.1386719 C154.118485,65.6520158 153.42969,65.1298042 152.935547,64.5720215 C152.441404,64.0142387 152.194336,63.349776 152.194336,62.5786133 C152.194336,61.2084892 152.703445,60.1752965 153.72168,59.4790039 C154.739914,58.7827114 155.881667,58.4345703 157.146973,58.4345703 C158.412278,58.4345703 159.49788,58.5955388 160.403809,58.9174805 L160.269043,60.5458984 C159.490393,60.1490866 158.509609,59.9506836 157.32666,59.9506836 L157.32666,59.9506836 Z M172.403809,71.5629883 C172.403809,72.5961966 172.44873,73.4085257 172.538574,74 L170.910156,74 L170.842773,72.1582031 C170.520832,72.8320346 170.026696,73.3505027 169.360352,73.713623 C168.694007,74.0767434 168.053877,74.2583008 167.439941,74.2583008 C166.234532,74.2583008 165.281823,73.9794136 164.581787,73.4216309 C163.881751,72.8638481 163.531738,72.0608776 163.531738,71.0126953 C163.531738,69.6275972 164.104486,68.6168652 165.25,67.9804688 C166.395514,67.3440723 167.930329,67.0258789 169.854492,67.0258789 L170.75293,67.0258789 L170.75293,66.4755859 C170.75293,65.599605 170.560142,64.9089381 170.174561,64.4035645 C169.788979,63.8981908 169.04216,63.6455078 167.934082,63.6455078 C166.826004,63.6455078 165.807785,63.9524709 164.879395,64.5664062 L164.744629,63.0727539 C165.882655,62.5711238 167.110508,62.3203125 168.428223,62.3203125 C171.078627,62.3203125 172.403809,63.7465678 172.403809,66.5991211 L172.403809,71.5629883 Z M170.75293,68.25 L170.427246,68.25 C168.982252,68.25 167.930342,68.3604318 167.271484,68.5812988 C166.612627,68.8021658 166.111004,69.0941551 165.766602,69.4572754 C165.422199,69.8203957 165.25,70.2415341 165.25,70.7207031 C165.25,71.1998722 165.371662,71.6827775 165.61499,72.1694336 C165.858318,72.6560897 166.496577,72.8994141 167.529785,72.8994141 C169.678559,72.8994141 170.75293,71.5779755 170.75293,68.9350586 L170.75293,68.25 Z M176.261719,74 L176.261719,57.4125977 L177.935059,57.4125977 L177.935059,74 L176.261719,74 Z M182.017578,72.1582031 C181.388669,71.3720664 181.074219,70.1292403 181.074219,68.4296875 C181.074219,66.7376217 181.517818,65.2963927 182.405029,64.105957 C183.292241,62.9155214 184.488274,62.3203125 185.993164,62.3203125 C187.498054,62.3203125 188.622962,62.8593696 189.36792,63.9375 C190.112878,65.0156304 190.485352,66.3857339 190.485352,68.0478516 L190.485352,68.7329102 L182.826172,68.7329102 C182.826172,69.9233458 183.151852,70.9153606 183.803223,71.7089844 C184.454593,72.5026081 185.364252,72.8994141 186.532227,72.8994141 C187.700201,72.8994141 188.770828,72.6298855 189.744141,72.0908203 L189.878906,73.6518555 C188.875646,74.0561544 187.805019,74.2583008 186.666992,74.2583008 C185.528966,74.2583008 184.626794,74.1048192 183.960449,73.7978516 C183.294105,73.4908839 182.646488,72.9443399 182.017578,72.1582031 L182.017578,72.1582031 Z M188.77832,67.4863281 C188.77832,65.8242104 188.44141,64.7685569 187.767578,64.3193359 C187.093747,63.8701149 186.388106,63.6455078 185.650635,63.6455078 C184.913164,63.6455078 184.25806,64.0572875 183.685303,64.8808594 C183.112546,65.7044312 182.826172,66.5729121 182.826172,67.4863281 L188.77832,67.4863281 Z M194.444336,65.4199219 C194.444336,65.7718117 194.582844,66.0675444 194.859863,66.3071289 C195.136883,66.5467134 195.479409,66.7619619 195.887451,66.9528809 C196.295494,67.1437998 197.081619,67.4788387 198.24585,67.9580078 C199.410081,68.4371769 199.992188,69.4254482 199.992188,70.9228516 C199.992188,71.9560599 199.597253,72.7702607 198.807373,73.3654785 C198.017493,73.9606963 197.031093,74.2583008 195.848145,74.2583008 C194.665196,74.2583008 193.617029,74.0786151 192.703613,73.7192383 L192.838379,72.1582031 C193.721847,72.6373722 194.732579,72.8769531 195.870605,72.8769531 C196.514489,72.8769531 197.074135,72.7197281 197.549561,72.4052734 C198.024986,72.0908187 198.262695,71.6565783 198.262695,71.1025391 C198.262695,70.5484998 198.126059,70.1254897 197.852783,69.8334961 C197.579507,69.5415024 197.238853,69.2888194 196.830811,69.0754395 C196.422768,68.8620595 195.636643,68.5345074 194.472412,68.0927734 C193.308181,67.6510395 192.726074,66.7675848 192.726074,65.4423828 C192.726074,64.4166615 193.119137,63.6398952 193.905273,63.1120605 C194.69141,62.5842259 195.606684,62.3203125 196.651123,62.3203125 C197.695562,62.3203125 198.64827,62.4887678 199.509277,62.8256836 L199.374512,64.2294922 C198.573401,63.8551414 197.678716,63.6679688 196.69043,63.6679688 C195.702143,63.6679688 195.08073,63.8719869 194.826172,64.2800293 C194.571613,64.6880717 194.444336,65.0680321 194.444336,65.4199219 L194.444336,65.4199219 Z M209.999023,74 L209.999023,58.6591797 L211.818359,58.6591797 L211.818359,74 L209.999023,74 Z M215.92334,65.2402344 C215.92334,64.2519482 215.882162,63.3535197 215.799805,62.5449219 L217.338379,62.5449219 L217.416992,64.5214844 C218.233077,63.0465421 219.464673,62.3128255 221.111816,62.3203125 C222.496914,62.3203125 223.483314,62.7208619 224.071045,63.5219727 C224.658776,64.3230834 224.952637,65.4461191 224.952637,66.8911133 L224.952637,74 L223.301758,74 L223.301758,67.2167969 C223.301758,66.1386665 223.178224,65.3862326 222.931152,64.9594727 C222.684081,64.5327127 222.39022,64.2238779 222.049561,64.032959 C221.708901,63.8420401 221.254072,63.746582 220.685059,63.746582 C219.614415,63.746582 218.832034,64.1340293 218.337891,64.9089355 C217.843748,65.6838418 217.59668,66.659011 217.59668,67.8344727 L217.59668,74 L215.92334,74 L215.92334,65.2402344 Z M232.393066,74.2583008 C231.277501,74.2583008 230.545656,73.9326204 230.19751,73.28125 C229.849363,72.6298796 229.675293,71.6902731 229.675293,70.4624023 L229.675293,63.8588867 L227.519043,63.8588867 L227.519043,62.5449219 L229.675293,62.5449219 L229.675293,59.9731445 L231.337402,59.4003906 L231.337402,62.5449219 L233.931641,62.5449219 L233.931641,63.8588867 L231.337402,63.8588867 L231.337402,70.9003906 C231.337402,71.4095078 231.43286,71.8549786 231.623779,72.2368164 C231.814698,72.6186543 232.209632,72.8095703 232.808594,72.8095703 C233.182945,72.8095703 233.613442,72.7084971 234.100098,72.5063477 L234.189941,73.9101562 C233.620928,74.1422538 233.021976,74.2583008 232.393066,74.2583008 L232.393066,74.2583008 Z M237.093262,72.1582031 C236.464352,71.3720664 236.149902,70.1292403 236.149902,68.4296875 C236.149902,66.7376217 236.593501,65.2963927 237.480713,64.105957 C238.367924,62.9155214 239.563957,62.3203125 241.068848,62.3203125 C242.573738,62.3203125 243.698645,62.8593696 244.443604,63.9375 C245.188562,65.0156304 245.561035,66.3857339 245.561035,68.0478516 L245.561035,68.7329102 L237.901855,68.7329102 C237.901855,69.9233458 238.227536,70.9153606 238.878906,71.7089844 C239.530277,72.5026081 240.439936,72.8994141 241.60791,72.8994141 C242.775885,72.8994141 243.846512,72.6298855 244.819824,72.0908203 L244.95459,73.6518555 C243.95133,74.0561544 242.880702,74.2583008 241.742676,74.2583008 C240.604649,74.2583008 239.702477,74.1048192 239.036133,73.7978516 C238.369788,73.4908839 237.722171,72.9443399 237.093262,72.1582031 L237.093262,72.1582031 Z M243.854004,67.4863281 C243.854004,65.8242104 243.517093,64.7685569 242.843262,64.3193359 C242.16943,63.8701149 241.463789,63.6455078 240.726318,63.6455078 C239.988847,63.6455078 239.333743,64.0572875 238.760986,64.8808594 C238.18823,65.7044312 237.901855,66.5729121 237.901855,67.4863281 L243.854004,67.4863281 Z M248.632812,74 L248.632812,57.4125977 L250.306152,57.4125977 L250.306152,74 L248.632812,74 Z M254.141602,74 L254.141602,57.4125977 L255.814941,57.4125977 L255.814941,74 L254.141602,74 Z M259.650391,59.9956055 L259.650391,57.996582 L261.32373,57.996582 L261.32373,59.9956055 L259.650391,59.9956055 Z M259.650391,74 L259.650391,62.5449219 L261.32373,62.5449219 L261.32373,74 L259.650391,74 Z M269.134766,62.3203125 C270.80437,62.3203125 271.998532,63.0390553 272.717285,64.4765625 L272.717285,62.5449219 L274.312012,62.5449219 L274.312012,73.4272461 C274.312012,76.2423643 273.651292,77.911944 272.329834,78.4360352 C271.008376,78.9601263 269.84229,79.222168 268.831543,79.222168 C267.820796,79.222168 266.671556,79.023765 265.383789,78.6269531 L265.518555,76.9873047 C266.596685,77.5413439 267.701003,77.8183594 268.831543,77.8183594 C270.763193,77.8183594 271.878742,77.2474829 272.178223,76.1057129 C272.477703,74.9639429 272.627441,74.0786164 272.627441,73.449707 L272.627441,71.9785156 C272.275552,72.6223991 271.777672,73.1202782 271.133789,73.472168 C270.489906,73.8240577 269.77865,74 269,74 C268.22135,74 267.270513,73.6818066 266.147461,73.0454102 C265.024408,72.4090137 264.462891,70.7768686 264.462891,68.1489258 C264.462891,65.52847 265.030024,63.90194 266.164307,63.2692871 C267.29859,62.6366342 268.288733,62.3203125 269.134766,62.3203125 L269.134766,62.3203125 Z M271.880615,65.1279297 C271.352781,64.2070266 270.519862,63.746582 269.381836,63.746582 C268.243809,63.746582 267.438967,64.1808225 266.967285,65.0493164 C266.495603,65.9178103 266.259766,66.9846942 266.259766,68.25 C266.259766,70.1517022 266.626624,71.3477352 267.360352,71.8381348 C268.094079,72.3285344 268.775387,72.5737305 269.404297,72.5737305 C270.033206,72.5737305 270.555418,72.4389662 270.970947,72.1694336 C271.386477,71.899901 271.773924,71.469404 272.133301,70.8779297 C272.492678,70.2864554 272.672363,69.4104876 272.672363,68.25 C272.672363,67.0895124 272.40845,66.0488327 271.880615,65.1279297 L271.880615,65.1279297 Z M278.394531,72.1582031 C277.765622,71.3720664 277.451172,70.1292403 277.451172,68.4296875 C277.451172,66.7376217 277.894771,65.2963927 278.781982,64.105957 C279.669194,62.9155214 280.865227,62.3203125 282.370117,62.3203125 C283.875008,62.3203125 284.999915,62.8593696 285.744873,63.9375 C286.489831,65.0156304 286.862305,66.3857339 286.862305,68.0478516 L286.862305,68.7329102 L279.203125,68.7329102 C279.203125,69.9233458 279.528805,70.9153606 280.180176,71.7089844 C280.831546,72.5026081 281.741205,72.8994141 282.90918,72.8994141 C284.077154,72.8994141 285.147782,72.6298855 286.121094,72.0908203 L286.255859,73.6518555 C285.252599,74.0561544 284.181972,74.2583008 283.043945,74.2583008 C281.905919,74.2583008 281.003747,74.1048192 280.337402,73.7978516 C279.671058,73.4908839 279.023441,72.9443399 278.394531,72.1582031 L278.394531,72.1582031 Z M285.155273,67.4863281 C285.155273,65.8242104 284.818363,64.7685569 284.144531,64.3193359 C283.4707,63.8701149 282.765059,63.6455078 282.027588,63.6455078 C281.290117,63.6455078 280.635013,64.0572875 280.062256,64.8808594 C279.489499,65.7044312 279.203125,66.5729121 279.203125,67.4863281 L285.155273,67.4863281 Z M289.934082,65.2402344 C289.934082,64.2519482 289.892904,63.3535197 289.810547,62.5449219 L291.349121,62.5449219 L291.427734,64.5214844 C292.243819,63.0465421 293.475415,62.3128255 295.122559,62.3203125 C296.507657,62.3203125 297.494056,62.7208619 298.081787,63.5219727 C298.669518,64.3230834 298.963379,65.4461191 298.963379,66.8911133 L298.963379,74 L297.3125,74 L297.3125,67.2167969 C297.3125,66.1386665 297.188966,65.3862326 296.941895,64.9594727 C296.694823,64.5327127 296.400962,64.2238779 296.060303,64.032959 C295.719643,63.8420401 295.264814,63.746582 294.695801,63.746582 C293.625157,63.746582 292.842776,64.1340293 292.348633,64.9089355 C291.85449,65.6838418 291.607422,66.659011 291.607422,67.8344727 L291.607422,74 L289.934082,74 L289.934082,65.2402344 Z M302.125,68.2275391 C302.125,66.4980382 302.634109,65.0811416 303.652344,63.9768066 C304.670578,62.8724717 306.040681,62.3203125 307.762695,62.3203125 C308.713546,62.3203125 309.649409,62.4812809 310.570312,62.8032227 L310.424316,64.296875 C309.608232,63.9150372 308.833337,63.7241211 308.099609,63.7241211 C306.736972,63.7241211 305.700036,64.1340291 304.98877,64.9538574 C304.277503,65.7736857 303.921875,66.8461848 303.921875,68.1713867 C303.921875,69.4965887 304.27376,70.6083939 304.977539,71.5068359 C305.681319,72.4052779 306.662103,72.8544922 307.919922,72.8544922 C308.773442,72.8544922 309.615719,72.6748065 310.446777,72.3154297 L310.570312,73.8203125 C309.731767,74.1123061 308.807134,74.2583008 307.796387,74.2583008 C305.954581,74.2583008 304.548914,73.6855526 303.579346,72.5400391 C302.609777,71.3945255 302.125,69.9570399 302.125,68.2275391 L302.125,68.2275391 Z M313.754395,72.1582031 C313.125485,71.3720664 312.811035,70.1292403 312.811035,68.4296875 C312.811035,66.7376217 313.254634,65.2963927 314.141846,64.105957 C315.029057,62.9155214 316.22509,62.3203125 317.72998,62.3203125 C319.234871,62.3203125 320.359778,62.8593696 321.104736,63.9375 C321.849694,65.0156304 322.222168,66.3857339 322.222168,68.0478516 L322.222168,68.7329102 L314.562988,68.7329102 C314.562988,69.9233458 314.888669,70.9153606 315.540039,71.7089844 C316.19141,72.5026081 317.101068,72.8994141 318.269043,72.8994141 C319.437018,72.8994141 320.507645,72.6298855 321.480957,72.0908203 L321.615723,73.6518555 C320.612462,74.0561544 319.541835,74.2583008 318.403809,74.2583008 C317.265782,74.2583008 316.36361,74.1048192 315.697266,73.7978516 C315.030921,73.4908839 314.383304,72.9443399 313.754395,72.1582031 L313.754395,72.1582031 Z M320.515137,67.4863281 C320.515137,65.8242104 320.178226,64.7685569 319.504395,64.3193359 C318.830563,63.8701149 318.124922,63.6455078 317.387451,63.6455078 C316.64998,63.6455078 315.994876,64.0572875 315.422119,64.8808594 C314.849362,65.7044312 314.562988,66.5729121 314.562988,67.4863281 L320.515137,67.4863281 Z" id="Automotive-Sales-Int"></path>
                </g>
            </g>
        </g>
    </g>
</svg>