<?xml version="1.0" encoding="UTF-8" standalone="no"?>
<svg width="28px" height="35px" viewBox="0 0 28 35" version="1.1" xmlns="http://www.w3.org/2000/svg" xmlns:xlink="http://www.w3.org/1999/xlink" xmlns:sketch="http://www.bohemiancoding.com/sketch/ns">
    <!-- Generator: Sketch 3.3.2 (12043) - http://www.bohemiancoding.com/sketch -->
    <title>notepad_F</title>
    <desc>Created with Sketch.</desc>
    <defs></defs>
    <g id="Page-1" stroke="none" stroke-width="1" fill="none" fill-rule="evenodd" sketch:type="MSPage">
        <g id="Desktop-HD" sketch:type="MSArtboardGroup" transform="translate(-401.000000, -1831.000000)" fill="#8F64CC">
            <g id="benefit" sketch:type="MSLayerGroup" transform="translate(0.000000, 1189.000000)">
                <g id="step-1" transform="translate(369.000000, 615.607585)" sketch:type="MSShapeGroup">
                    <g id="Oval-5-+-todos_F-Copy" transform="translate(13.500000, 11.702012)">
                        <path d="M24.15,16.7875417 L26.4,16.7875417 L26.4,16.7875417 L26.4,15.6824394 C26.4,15.4718226 26.5678932,15.3026316 26.775,15.3026316 C26.9760498,15.3026316 27.15,15.4726773 27.15,15.6824394 L27.15,16.7875417 L29.4,16.7875417 L29.4,15.6824394 C29.4,15.4718226 29.5678932,15.3026316 29.775,15.3026316 C29.9760498,15.3026316 30.15,15.4726773 30.15,15.6824394 L30.15,16.7875417 L30.15,16.7875417 L32.4,16.7875417 L32.4,15.6824394 C32.4,15.4718226 32.5678932,15.3026316 32.775,15.3026316 C32.9760498,15.3026316 33.15,15.4726773 33.15,15.6824394 L33.15,16.7875417 L35.4,16.7875417 L35.4,16.7875417 L35.4,15.6824394 C35.4,15.4718226 35.5678932,15.3026316 35.775,15.3026316 C35.9760498,15.3026316 36.15,15.4726773 36.15,15.6824394 L36.15,16.7875417 L38.4,16.7875417 L38.4,16.7875417 L38.4,15.6824394 C38.4,15.4718226 38.5678932,15.3026316 38.775,15.3026316 C38.9760498,15.3026316 39.15,15.4726773 39.15,15.6824394 L39.15,16.7875417 L41.4,16.7875417 L41.4,15.6824394 C41.4,15.4718226 41.5678932,15.3026316 41.775,15.3026316 C41.9760498,15.3026316 42.15,15.4726773 42.15,15.6824394 L42.15,16.7875417 L42.15,16.7875417 L45.9,16.7875417 L45.9,49.4555636 L18.9,49.4555636 L18.9,16.7875417 L23.4,16.7875417 L23.4,15.6824394 C23.4,15.4718226 23.5678932,15.3026316 23.775,15.3026316 C23.9760498,15.3026316 24.15,15.4726773 24.15,15.6824394 L24.15,16.7875417 Z M24.1160903,19.5359707 C24.1381263,19.605893 24.15,19.6802548 24.15,19.7573618 C24.15,20.1674085 23.8142136,20.4998169 23.4,20.4998169 C22.9857864,20.4998169 22.65,20.1674085 22.65,19.7573618 C22.65,19.3473152 22.9857864,19.0149068 23.4,19.0149068 L23.4,19.3775541 C23.4,19.5873161 23.5739502,19.7573618 23.775,19.7573618 C23.9264225,19.7573618 24.0568833,19.6669199 24.1160903,19.5359707 Z M27.1160903,19.5359707 C27.1381263,19.605893 27.15,19.6802548 27.15,19.7573618 C27.15,20.1674085 26.8142136,20.4998169 26.4,20.4998169 C25.9857864,20.4998169 25.65,20.1674085 25.65,19.7573618 C25.65,19.3473152 25.9857864,19.0149068 26.4,19.0149068 L26.4,19.3775541 C26.4,19.5873161 26.5739502,19.7573618 26.775,19.7573618 C26.9264225,19.7573618 27.0568833,19.6669199 27.1160903,19.5359707 L27.1160903,19.5359707 Z M30.1160903,19.5359707 C30.1381263,19.605893 30.15,19.6802548 30.15,19.7573618 C30.15,20.1674085 29.8142136,20.4998169 29.4,20.4998169 C28.9857864,20.4998169 28.65,20.1674085 28.65,19.7573618 C28.65,19.3473152 28.9857864,19.0149068 29.4,19.0149068 L29.4,19.3775541 C29.4,19.5873161 29.5739502,19.7573618 29.775,19.7573618 C29.9264225,19.7573618 30.0568833,19.6669199 30.1160903,19.5359707 L30.1160903,19.5359707 Z M39.1160903,19.5359707 C39.1381263,19.605893 39.15,19.6802548 39.15,19.7573618 C39.15,20.1674085 38.8142136,20.4998169 38.4,20.4998169 C37.9857864,20.4998169 37.65,20.1674085 37.65,19.7573618 C37.65,19.3473152 37.9857864,19.0149068 38.4,19.0149068 L38.4,19.3775541 C38.4,19.5873161 38.5739502,19.7573618 38.775,19.7573618 C38.9264225,19.7573618 39.0568833,19.6669199 39.1160903,19.5359707 L39.1160903,19.5359707 Z M42.1160903,19.5359707 C42.1381263,19.605893 42.15,19.6802548 42.15,19.7573618 C42.15,20.1674085 41.8142136,20.4998169 41.4,20.4998169 C40.9857864,20.4998169 40.65,20.1674085 40.65,19.7573618 C40.65,19.3473152 40.9857864,19.0149068 41.4,19.0149068 L41.4,19.3775541 C41.4,19.5873161 41.5739502,19.7573618 41.775,19.7573618 C41.9264225,19.7573618 42.0568833,19.6669199 42.1160903,19.5359707 L42.1160903,19.5359707 Z M36.1160903,19.5359707 C36.1381263,19.605893 36.15,19.6802548 36.15,19.7573618 C36.15,20.1674085 35.8142136,20.4998169 35.4,20.4998169 C34.9857864,20.4998169 34.65,20.1674085 34.65,19.7573618 C34.65,19.3473152 34.9857864,19.0149068 35.4,19.0149068 L35.4,19.3775541 C35.4,19.5873161 35.5739502,19.7573618 35.775,19.7573618 C35.9264225,19.7573618 36.0568833,19.6669199 36.1160903,19.5359707 L36.1160903,19.5359707 Z M33.1160903,19.5359707 C33.1381263,19.605893 33.15,19.6802548 33.15,19.7573618 C33.15,20.1674085 32.8142136,20.4998169 32.4,20.4998169 C31.9857864,20.4998169 31.65,20.1674085 31.65,19.7573618 C31.65,19.3473152 31.9857864,19.0149068 32.4,19.0149068 L32.4,19.3775541 C32.4,19.5873161 32.5739502,19.7573618 32.775,19.7573618 C32.9264225,19.7573618 33.0568833,19.6669199 33.1160903,19.5359707 L33.1160903,19.5359707 Z M23.3906116,23.4696371 C22.9815831,23.4696371 22.65,23.7991868 22.65,24.2120921 L22.65,24.2120921 C22.65,24.6221387 22.988459,24.9545472 23.3906116,24.9545472 L41.4093884,24.9545472 C41.8184169,24.9545472 42.15,24.6249975 42.15,24.2120921 L42.15,24.2120921 C42.15,23.8020455 41.811541,23.4696371 41.4093884,23.4696371 L23.3906116,23.4696371 Z M23.3906116,33.8640077 C22.9815831,33.8640077 22.65,34.1935574 22.65,34.6064627 L22.65,34.6064627 C22.65,35.0165093 22.988459,35.3489178 23.3906116,35.3489178 L41.4093884,35.3489178 C41.8184169,35.3489178 42.15,35.0193681 42.15,34.6064627 L42.15,34.6064627 C42.15,34.1964162 41.811541,33.8640077 41.4093884,33.8640077 L23.3906116,33.8640077 Z M23.3828347,28.6668224 C22.9781013,28.6668224 22.65,28.9963721 22.65,29.4092774 L22.65,29.4092774 C22.65,29.819324 22.9743999,30.1517325 23.3828347,30.1517325 L31.6671653,30.1517325 C32.0718987,30.1517325 32.4,29.8221828 32.4,29.4092774 L32.4,29.4092774 C32.4,28.9992308 32.0756001,28.6668224 31.6671653,28.6668224 L23.3828347,28.6668224 Z M23.3828347,39.061193 C22.9781013,39.061193 22.65,39.3907427 22.65,39.8036481 L22.65,39.8036481 C22.65,40.2136947 22.9743999,40.5461031 23.3828347,40.5461031 L31.6671653,40.5461031 C32.0718987,40.5461031 32.4,40.2165534 32.4,39.8036481 L32.4,39.8036481 C32.4,39.3936015 32.0756001,39.061193 31.6671653,39.061193 L23.3828347,39.061193 Z" id="notepad_F"></path>
                    </g>
                </g>
            </g>
        </g>
    </g>
</svg>