<?xml version="1.0" encoding="UTF-8" standalone="no"?>
<svg width="237px" height="234px" viewBox="0 0 237 234" version="1.1" xmlns="http://www.w3.org/2000/svg" xmlns:xlink="http://www.w3.org/1999/xlink" xmlns:sketch="http://www.bohemiancoding.com/sketch/ns">
    <!-- Generator: Sketch 3.3.2 (12043) - http://www.bohemiancoding.com/sketch -->
    <title>ribbon</title>
    <desc>Created with Sketch.</desc>
    <defs>
        <filter x="-50%" y="-50%" width="200%" height="200%" filterUnits="objectBoundingBox" id="filter-1">
            <feOffset dx="0" dy="0" in="SourceAlpha" result="shadowOffsetOuter1"></feOffset>
            <feGaussianBlur stdDeviation="2.5" in="shadowOffsetOuter1" result="shadowBlurOuter1"></feGaussianBlur>
            <feColorMatrix values="0 0 0 0 0   0 0 0 0 0   0 0 0 0 0  0 0 0 0.35 0" in="shadowBlurOuter1" type="matrix" result="shadowMatrixOuter1"></feColorMatrix>
            <feMerge>
                <feMergeNode in="shadowMatrixOuter1"></feMergeNode>
                <feMergeNode in="SourceGraphic"></feMergeNode>
            </feMerge>
        </filter>
    </defs>
    <g id="Page-1" stroke="none" stroke-width="1" fill="none" fill-rule="evenodd" sketch:type="MSPage">
        <g id="Desktop-HD" sketch:type="MSArtboardGroup" transform="translate(-1203.000000, -4130.000000)">
            <g id="Signup" sketch:type="MSLayerGroup" transform="translate(0.000000, 4130.000000)">
                <g id="ribbon" transform="translate(1344.000000, 91.707107) rotate(45.000000) translate(-1344.000000, -91.707107) translate(1177.500000, 61.207107)" sketch:type="MSShapeGroup">
                    <rect id="Rectangle-27" fill="#3B3B3B" filter="url(#filter-1)" x="4.54747351e-13" y="4.54747351e-13" width="332" height="60"></rect>
                    <path d="M86.015625,28.0693359 C86.015625,26.0250549 86.6585222,24.3600325 87.9443359,23.0742188 C89.2301497,21.788405 90.875641,21.1455078 92.8808594,21.1455078 C94.1764388,21.1455078 95.2213502,21.3180321 96.015625,21.6630859 L95.8984375,23.0791016 C95.0781209,22.6949851 94.1764372,22.5029297 93.1933594,22.5029297 C91.4160067,22.5029297 90.0520881,23.018875 89.1015625,24.0507813 C88.1510369,25.0826875 87.6757813,26.4189371 87.6757813,28.0595703 C87.6757813,29.7002035 88.1380162,31.0234325 89.0625,32.0292969 C89.9869838,33.0351613 91.2792886,33.5380859 92.9394531,33.5380859 C94.1569071,33.5380859 95.1562461,33.3460306 95.9375,32.9619141 L96.0644531,34.2998047 C95.2831992,34.7034525 94.2936258,34.9052734 93.0957031,34.9052734 C90.8561086,34.9052734 89.1162171,34.2770245 87.8759766,33.0205078 C86.635736,31.7639911 86.015625,30.113617 86.015625,28.0693359 L86.015625,28.0693359 Z M101.269531,34.9052734 C99.0559785,34.9052734 97.9492188,33.564141 97.9492188,30.8818359 L97.9492188,24.7197266 L99.4140625,24.7197266 L99.4140625,30.6181641 C99.4140625,31.5491583 99.5166005,32.201821 99.7216797,32.5761719 C99.9267588,32.9505227 100.172525,33.2223299 100.458984,33.3916016 C100.745444,33.5608732 101.13932,33.6455078 101.640625,33.6455078 C102.571619,33.6455078 103.253579,33.3069695 103.686523,32.6298828 C104.119468,31.9527961 104.335938,31.1031952 104.335938,30.0810547 L104.335938,24.7197266 L105.771484,24.7197266 L105.771484,32.3369141 C105.771484,33.2613979 105.804036,34.04264 105.869141,34.6806641 L104.53125,34.6806641 L104.492188,32.9619141 C103.789059,34.2574935 102.714851,34.9052734 101.269531,34.9052734 L101.269531,34.9052734 Z M112.685547,24.5244141 C113.01758,24.5244141 113.284504,24.5504555 113.486328,24.6025391 L113.408203,26.0576172 C113.141275,25.9794918 112.812502,25.9404297 112.421875,25.9404297 C112.031248,25.9404297 111.554365,26.1601541 110.991211,26.5996094 C110.428057,27.0390647 110.146484,28.0856037 110.146484,29.7392578 L110.146484,34.6806641 L108.691406,34.6806641 L108.691406,27.0634766 C108.691406,26.2040973 108.655599,25.4228551 108.583984,24.7197266 L109.921875,24.7197266 L110.009766,26.6044922 C110.198569,26.0706354 110.533852,25.5904969 111.015625,25.1640625 C111.497398,24.7376281 112.054033,24.5244141 112.685547,24.5244141 L112.685547,24.5244141 Z M119.238281,24.5244141 C119.570314,24.5244141 119.837239,24.5504555 120.039063,24.6025391 L119.960938,26.0576172 C119.694009,25.9794918 119.365236,25.9404297 118.974609,25.9404297 C118.583982,25.9404297 118.107099,26.1601541 117.543945,26.5996094 C116.980791,27.0390647 116.699219,28.0856037 116.699219,29.7392578 L116.699219,34.6806641 L115.244141,34.6806641 L115.244141,27.0634766 C115.244141,26.2040973 115.208334,25.4228551 115.136719,24.7197266 L116.474609,24.7197266 L116.5625,26.6044922 C116.751303,26.0706354 117.086586,25.5904969 117.568359,25.1640625 C118.050133,24.7376281 118.606768,24.5244141 119.238281,24.5244141 L119.238281,24.5244141 Z M121.767578,33.0791016 C121.2207,32.3955044 120.947266,31.314786 120.947266,29.8369141 C120.947266,28.3655525 121.333004,27.1123099 122.104492,26.0771484 C122.87598,25.041987 123.916009,24.5244141 125.224609,24.5244141 C126.53321,24.5244141 127.51139,24.9931594 128.15918,25.9306641 C128.806969,26.8681688 129.130859,28.0595631 129.130859,29.5048828 L129.130859,30.1005859 L122.470703,30.1005859 C122.470703,31.1357474 122.753903,31.9983689 123.320313,32.6884766 C123.886722,33.3785842 124.677729,33.7236328 125.693359,33.7236328 C126.708989,33.7236328 127.63997,33.4892602 128.486328,33.0205078 L128.603516,34.3779297 C127.731115,34.7294939 126.800135,34.9052734 125.810547,34.9052734 C124.820959,34.9052734 124.036461,34.7718112 123.457031,34.5048828 C122.877601,34.2379544 122.314456,33.7626987 121.767578,33.0791016 L121.767578,33.0791016 Z M127.646484,29.0166016 C127.646484,27.5712818 127.353519,26.6533223 126.767578,26.2626953 C126.181638,25.8720684 125.568037,25.6767578 124.926758,25.6767578 C124.285479,25.6767578 123.715823,26.0348271 123.217773,26.7509766 C122.719724,27.467126 122.470703,28.2223268 122.470703,29.0166016 L127.646484,29.0166016 Z M131.367188,27.0634766 C131.367188,26.2040973 131.331381,25.4228551 131.259766,24.7197266 L132.597656,24.7197266 L132.666016,26.4384766 C133.375655,25.1559181 134.446607,24.5179036 135.878906,24.5244141 C137.083339,24.5244141 137.941078,24.8727179 138.452148,25.5693359 C138.963219,26.265954 139.21875,27.2425067 139.21875,28.4990234 L139.21875,34.6806641 L137.783203,34.6806641 L137.783203,28.7822266 C137.783203,27.8447219 137.675782,27.1904315 137.460938,26.8193359 C137.246093,26.4482403 136.990561,26.1796883 136.694336,26.0136719 C136.39811,25.8476554 136.002607,25.7646484 135.507813,25.7646484 C134.576818,25.7646484 133.896487,26.1015591 133.466797,26.7753906 C133.037107,27.4492221 132.822266,28.2971954 132.822266,29.3193359 L132.822266,34.6806641 L131.367188,34.6806641 L131.367188,27.0634766 Z M145.253906,34.9052734 C144.283849,34.9052734 143.647462,34.6220731 143.344727,34.0556641 C143.041991,33.489255 142.890625,32.6722059 142.890625,31.6044922 L142.890625,25.8623047 L141.015625,25.8623047 L141.015625,24.7197266 L142.890625,24.7197266 L142.890625,22.4833984 L144.335938,21.9853516 L144.335938,24.7197266 L146.591797,24.7197266 L146.591797,25.8623047 L144.335938,25.8623047 L144.335938,31.9853516 C144.335938,32.4280621 144.418944,32.815428 144.584961,33.1474609 C144.750977,33.4794938 145.094398,33.6455078 145.615234,33.6455078 C145.940757,33.6455078 146.315102,33.5576181 146.738281,33.3818359 L146.816406,34.6025391 C146.321612,34.804363 145.800784,34.9052734 145.253906,34.9052734 L145.253906,34.9052734 Z M148.691406,34.6806641 L148.691406,20.2568359 L150.146484,20.2568359 L150.146484,34.6806641 L148.691406,34.6806641 Z M153.251953,37.9814453 C154.013676,37.9814453 154.622394,37.2132238 155.078125,35.6767578 L155.283203,35.0224609 L151.826172,24.7197266 L153.398438,24.7197266 L156.083984,33.3037109 L158.740234,24.7197266 L160.263672,24.7197266 L156.259766,36.4189453 C155.966795,37.2848351 155.660809,37.8951805 155.341797,38.25 C155.022785,38.6048195 154.713543,38.855468 154.414063,39.0019531 C154.114582,39.1484382 153.782554,39.2216797 153.417969,39.2216797 C153.053384,39.2216797 152.646487,39.1695969 152.197266,39.0654297 L152.324219,37.7958984 C152.682293,37.919597 152.991535,37.9814453 153.251953,37.9814453 L153.251953,37.9814453 Z M167.34375,22.5029297 L167.34375,20.7646484 L168.798828,20.7646484 L168.798828,22.5029297 L167.34375,22.5029297 Z M167.34375,34.6806641 L167.34375,24.7197266 L168.798828,24.7197266 L168.798828,34.6806641 L167.34375,34.6806641 Z M171.699219,27.0634766 C171.699219,26.2040973 171.663412,25.4228551 171.591797,24.7197266 L172.929688,24.7197266 L172.998047,26.4384766 C173.707686,25.1559181 174.778639,24.5179036 176.210938,24.5244141 C177.415371,24.5244141 178.273109,24.8727179 178.78418,25.5693359 C179.29525,26.265954 179.550781,27.2425067 179.550781,28.4990234 L179.550781,34.6806641 L178.115234,34.6806641 L178.115234,28.7822266 C178.115234,27.8447219 178.007814,27.1904315 177.792969,26.8193359 C177.578124,26.4482403 177.322593,26.1796883 177.026367,26.0136719 C176.730142,25.8476554 176.334638,25.7646484 175.839844,25.7646484 C174.90885,25.7646484 174.228518,26.1015591 173.798828,26.7753906 C173.369138,27.4492221 173.154297,28.2971954 173.154297,29.3193359 L173.154297,34.6806641 L171.699219,34.6806641 L171.699219,27.0634766 Z M202.029297,30.0634766 C202.029297,31.8603605 201.441412,33.0790984 200.265625,33.7197266 C199.089838,34.3603548 197.55665,34.6806641 195.666016,34.6806641 L189.818359,34.6806641 L189.818359,18.6728516 L196.345703,18.6728516 C198.744153,18.6728516 200.222653,19.1415969 200.78125,20.0791016 C201.339847,21.0166063 201.619141,21.9306596 201.619141,22.8212891 C201.619141,23.7119185 201.339847,24.4716765 200.78125,25.1005859 C200.222653,25.7294953 199.455083,26.1533192 198.478516,26.3720703 C199.486333,26.5517587 200.330075,26.9580046 201.009766,27.5908203 C201.689457,28.223636 202.029297,29.0478465 202.029297,30.0634766 L202.029297,30.0634766 Z M198.091797,23.1025391 C198.091797,22.2978475 197.816409,21.7216814 197.265625,21.3740234 C196.714841,21.0263654 196.029301,20.8525391 195.208984,20.8525391 L193.216797,20.8525391 L193.216797,25.4462891 L194.927734,25.4462891 C196.373054,25.4462891 197.261717,25.1650419 197.59375,24.6025391 C197.925783,24.0400363 198.091797,23.5400413 198.091797,23.1025391 L198.091797,23.1025391 Z M198.431641,29.9931641 C198.431641,28.3212807 197.20509,27.4853516 194.751953,27.4853516 L193.216797,27.4853516 L193.216797,32.5009766 L194.904297,32.5009766 C196.466805,32.5009766 197.445311,32.211917 197.839844,31.6337891 C198.234377,31.0556612 198.431641,30.5087916 198.431641,29.9931641 L198.431641,29.9931641 Z M204.841797,34.6806641 L204.841797,18.6728516 L215.271484,18.6728516 L215.271484,21.1220703 L208.310547,21.1220703 L208.310547,25.3173828 L214.966797,25.3173828 L214.966797,27.7431641 L208.310547,27.7431641 L208.310547,32.2314453 L215.494141,32.2314453 L215.494141,34.6806641 L204.841797,34.6806641 Z M225.302734,21.5087891 L225.302734,34.6806641 L221.728516,34.6806641 L221.728516,21.5087891 L216.701172,21.5087891 L216.701172,18.6728516 L230.318359,18.6728516 L230.318359,21.5087891 L225.302734,21.5087891 Z M242.529297,34.6806641 L241.111328,30.6728516 L234.302734,30.6728516 L232.861328,34.6806641 L229.357422,34.6806641 L235.451172,18.6728516 L240.103516,18.6728516 L246.232422,34.6806641 L242.529297,34.6806641 Z M237.736328,20.9228516 L235.017578,28.2470703 L240.373047,28.2470703 L237.736328,20.9228516 Z" id="Currently-in-BETA" fill="#FFFFFF"></path>
                </g>
            </g>
        </g>
    </g>
</svg>