<svg width="98" height="121" viewBox="0 0 98 121" xmlns="http://www.w3.org/2000/svg"><title>todos_F</title><path d="M68.218 24.937S46.104 53.317 46.203 53.38c-.179-.115-28.871-28.443-28.871-28.443H4v89.87h90v-89.87H68.218zm-36.215 35.08a1 1 0 0 0-1.003.997v2.499c0 .55.445.997 1.003.997h42.994A1 1 0 0 0 76 63.513v-2.5a.998.998 0 0 0-1.003-.997H32.003zm-10.003 0v4.493h4.5v-4.494H22zm10.003 16.48a1 1 0 0 0-1.003.997v2.5c0 .55.445.996 1.003.996h42.994A1 1 0 0 0 76 79.993v-2.499a.998.998 0 0 0-1.003-.997H32.003zm-10.003 0v4.493h4.5v-4.493H22zm10.003 16.48a1 1 0 0 0-1.003.998v2.499c0 .55.445.997 1.003.997h42.994A1 1 0 0 0 76 96.474v-2.5a.998.998 0 0 0-1.003-.997H32.003zm-10.003 0v4.494h4.5v-4.494H22zm23.824-53.25l-19.83-18.663a1.211 1.211 0 0 0-1.526-.072l-1.837 1.427a.874.874 0 0 0-.09 1.337L45.824 47.52 77.14 5.574c.328-.44.264-1.09-.147-1.455l-2.097-1.858a.891.891 0 0 0-1.334.138L45.824 39.728z" fill="#FFF" fill-rule="evenodd"/></svg>