<svg width="1921" height="770" viewBox="0 0 1921 770" xmlns="http://www.w3.org/2000/svg" xmlns:xlink="http://www.w3.org/1999/xlink"><title>Line graph</title><defs><path id="a" d="M.977 1h1920v770H.977z"/><path id="c" d="M-732 616.782S148.812 85.526 371.89 120.67c223.08 35.143 521.76 443.322 789.403 455.846C1428.936 589.04 2083 276.38 2083 276.38V827H-732V616.782z"/><path id="d" d="M-732 575.111S-225.176 1 109.946 1c335.12 0 518.416 554.159 694.768 564.934 91.601 5.597 581.823-393.764 745.677-393.764C1714.246 172.17 2083 414.5 2083 414.5V828H-732V575.111z"/></defs><g transform="translate(0 -1)" fill="none" fill-rule="evenodd"><mask id="b" fill="#fff"><use xlink:href="#a"/></mask><use xlink:href="#a"/><path d="M636.836 430.266c708.367-323.258 974.219-180.735 1122 97.693C1906.617 806.387 2080.086 828 2080.086 828H-732s660.469-74.477 1368.836-397.734z" stroke="#D28EA9" fill-opacity=".26" fill="#BFCCD2" mask="url(#b)"/><use stroke="#D28EA9" mask="url(#b)" xlink:href="#c"/><use fill-opacity=".26" fill="#C0CCD2" xlink:href="#c"/><use stroke="#D28EA9" mask="url(#b)" xlink:href="#d"/><use fill-opacity=".26" fill="#C0CCD2" xlink:href="#d"/><path d="M378 132c5.523 0 10-4.477 10-10s-4.477-10-10-10-10 4.477-10 10 4.477 10 10 10zM1353 257c5.523 0 10-4.477 10-10s-4.477-10-10-10-10 4.477-10 10 4.477 10 10 10zM1700 449c5.523 0 10-4.477 10-10s-4.477-10-10-10-10 4.477-10 10 4.477 10 10 10z" fill="#D28EA9"/></g></svg>