<svg width="610" height="210" viewBox="0 0 610 210" xmlns="http://www.w3.org/2000/svg"><title>logo white</title><g fill="#FFF" fill-rule="evenodd"><path d="M288.102 180.852h1.493v4.636a3.421 3.421 0 0 1 1.203-1.022 3.328 3.328 0 0 1 1.518-.352c1.138 0 2.06.398 2.769 1.196.708.797 1.062 1.973 1.062 3.527 0 1.472-.35 2.696-1.05 3.67-.7.974-1.669 1.461-2.909 1.461-.693 0-1.28-.17-1.757-.513-.284-.203-.589-.527-.913-.974v1.192h-1.416v-12.821zm5.857 10.724c.412-.672.618-1.56.618-2.661 0-.98-.206-1.792-.618-2.436-.413-.643-1.02-.965-1.822-.965-.7 0-1.312.264-1.838.791-.526.528-.79 1.398-.79 2.61 0 .875.109 1.586.325 2.13.404 1.027 1.157 1.54 2.26 1.54.83 0 1.452-.336 1.865-1.009zm9.686-7.219h1.698c-.217.597-.697 1.96-1.442 4.088-.557 1.6-1.024 2.905-1.4 3.914-.886 2.378-1.512 3.827-1.876 4.35-.364.521-.99.782-1.877.782-.216 0-.382-.009-.499-.026a3.877 3.877 0 0 1-.43-.096v-1.426c.267.075.46.122.58.139.12.017.224.026.315.026.285 0 .494-.048.627-.143.134-.096.246-.214.337-.353.029-.046.131-.284.307-.713.177-.43.305-.748.384-.957l-3.378-9.585h1.74l2.449 7.585 2.465-7.585zm16.479 2.77l-2.378-7.056-2.527 7.056h4.905zm-3.487-9.426h2.4l5.683 15.972h-2.325l-1.589-4.784h-6.195l-1.695 4.784h-2.176l5.897-15.972zm11.676 4.327v7.73c0 .595.093 1.08.278 1.457.34.696.977 1.044 1.908 1.044 1.337 0 2.247-.609 2.73-1.826.263-.653.395-1.548.395-2.686v-5.719h1.92v11.645h-1.814l.022-1.718a3.93 3.93 0 0 1-.928 1.12c-.732.609-1.62.913-2.666.913-1.628 0-2.737-.555-3.327-1.664-.32-.594-.48-1.388-.48-2.38v-7.916h1.962zm10.61-3.25h1.941v3.25h1.823v1.598h-1.823v7.6c0 .406.135.678.405.816.15.08.398.12.747.12a5.622 5.622 0 0 0 .672-.033v1.544c-.22.065-.45.112-.688.141a6.415 6.415 0 0 1-.773.043c-.896 0-1.504-.233-1.824-.7-.32-.468-.48-1.075-.48-1.822v-7.709h-1.546v-1.598h1.546v-3.25zm12.834 12.16c.472-.982.709-2.075.709-3.278 0-1.087-.17-1.971-.512-2.653-.54-1.072-1.472-1.609-2.794-1.609-1.173 0-2.026.457-2.56 1.37-.532.913-.799 2.015-.799 3.305 0 1.24.267 2.273.8 3.099.533.826 1.379 1.24 2.538 1.24 1.272 0 2.145-.492 2.618-1.474zm1.189-7.746c1.016 1 1.524 2.471 1.524 4.414 0 1.877-.447 3.428-1.343 4.653-.896 1.225-2.286 1.838-4.17 1.838-1.57 0-2.818-.542-3.742-1.626-.924-1.083-1.387-2.538-1.387-4.365 0-1.957.487-3.515 1.461-4.675.974-1.16 2.282-1.74 3.924-1.74 1.472 0 2.716.5 3.733 1.5zm3.806-1.164h1.898v1.653c.455-.573.868-.99 1.237-1.25a3.67 3.67 0 0 1 2.154-.664c.91 0 1.642.229 2.197.685.313.261.597.645.853 1.153.427-.624.928-1.086 1.503-1.386.576-.301 1.223-.452 1.941-.452 1.536 0 2.58.566 3.135 1.696.299.61.448 1.428.448 2.458v7.752h-1.994v-8.09c0-.775-.19-1.308-.57-1.598-.38-.29-.845-.435-1.392-.435-.754 0-1.402.258-1.946.772-.544.515-.816 1.374-.816 2.577v6.774h-1.951v-7.6c0-.79-.093-1.367-.277-1.729-.292-.544-.836-.815-1.632-.815-.725 0-1.384.286-1.978.859-.594.572-.89 1.609-.89 3.11v6.175h-1.92v-11.645zm25.342 8.91c.472-.982.709-2.075.709-3.278 0-1.087-.171-1.971-.512-2.653-.54-1.072-1.472-1.609-2.794-1.609-1.173 0-2.026.457-2.56 1.37-.532.913-.799 2.015-.799 3.305 0 1.24.267 2.273.8 3.099.533.826 1.379 1.24 2.538 1.24 1.272 0 2.145-.492 2.618-1.474zm1.188-7.746c1.017 1 1.525 2.471 1.525 4.414 0 1.877-.448 3.428-1.343 4.653-.896 1.225-2.286 1.838-4.17 1.838-1.57 0-2.818-.542-3.742-1.626-.925-1.083-1.387-2.538-1.387-4.365 0-1.957.487-3.515 1.461-4.675.974-1.16 2.282-1.74 3.924-1.74 1.472 0 2.716.5 3.732 1.5zm4.191-4.415h1.94v3.251h1.824v1.598h-1.823v7.6c0 .406.135.678.405.816.15.08.398.12.746.12a5.622 5.622 0 0 0 .672-.033v1.544c-.22.065-.45.112-.688.141a6.415 6.415 0 0 1-.773.043c-.895 0-1.503-.233-1.823-.7-.32-.468-.48-1.075-.48-1.822v-7.709h-1.546v-1.598h1.546v-3.25zm5.684 3.306h1.951v11.59h-1.951v-11.59zm0-4.382h1.951v2.218h-1.951v-2.218zm5.79 4.327l3.05 9.481 3.188-9.48h2.1l-4.307 11.644h-2.048l-4.212-11.645h2.229zm17.093.321c.76.388 1.34.89 1.738 1.506.384.587.64 1.272.768 2.055.114.536.17 1.391.17 2.566h-8.37c.035 1.181.31 2.129.82 2.843.513.714 1.305 1.07 2.379 1.07 1.002 0 1.802-.336 2.399-1.01a3.43 3.43 0 0 0 .725-1.36h1.888c-.05.428-.216.905-.496 1.43-.281.526-.596.955-.944 1.289-.583.58-1.304.97-2.165 1.174a6.455 6.455 0 0 1-1.567.174c-1.422 0-2.627-.528-3.615-1.582-.988-1.055-1.482-2.532-1.482-4.43 0-1.87.497-3.39 1.493-4.556.995-1.167 2.296-1.75 3.902-1.75.81 0 1.596.193 2.357.581zm.704 4.572c-.078-.848-.26-1.526-.544-2.033-.526-.943-1.404-1.414-2.634-1.414-.881 0-1.62.325-2.218.973-.597.65-.913 1.474-.949 2.474h6.345zm16.538-2.468c.896 0 1.593-.127 2.09-.38.782-.4 1.173-1.117 1.173-2.153 0-1.044-.415-1.747-1.247-2.11-.47-.203-1.166-.304-2.09-.304h-3.786v4.947h3.86zm.715 7.371c1.3 0 2.229-.384 2.783-1.152.348-.486.523-1.073.523-1.761 0-1.16-.509-1.95-1.525-2.37-.54-.225-1.255-.338-2.144-.338h-4.212v5.621h4.575zm-6.654-14.123h6.729c1.834 0 3.138.558 3.913 1.674.455.66.682 1.421.682 2.284 0 1.007-.28 1.833-.842 2.478-.291.341-.71.653-1.258.936.803.311 1.404.663 1.802 1.054.704.696 1.056 1.656 1.056 2.881 0 1.03-.317 1.961-.95 2.795-.945 1.246-2.448 1.87-4.51 1.87h-6.622V177.7zm16.283 4.327v7.73c0 .595.092 1.08.277 1.457.341.696.978 1.044 1.909 1.044 1.336 0 2.246-.609 2.73-1.826.263-.653.394-1.548.394-2.686v-5.719h1.92v11.645h-1.813l.021-1.718a3.93 3.93 0 0 1-.928 1.12c-.732.609-1.62.913-2.665.913-1.628 0-2.737-.555-3.327-1.664-.32-.594-.48-1.388-.48-2.38v-7.916h1.962zm11.367 7.991c.057.653.217 1.153.48 1.5.483.631 1.322.947 2.516.947.711 0 1.337-.158 1.877-.473.54-.315.81-.803.81-1.463 0-.5-.216-.88-.65-1.141-.277-.16-.825-.344-1.642-.555l-1.525-.391c-.974-.246-1.692-.522-2.154-.826-.825-.53-1.237-1.262-1.237-2.197 0-1.101.39-1.993 1.168-2.674.778-.682 1.825-1.022 3.14-1.022 1.72 0 2.96.514 3.721 1.544.477.652.708 1.355.694 2.109h-1.813a2.29 2.29 0 0 0-.459-1.207c-.44-.515-1.205-.772-2.292-.772-.725 0-1.275.142-1.648.424-.373.283-.56.656-.56 1.12 0 .507.246.913.736 1.218.285.181.704.34 1.258.478l1.27.315c1.378.341 2.303.67 2.772.99.746.5 1.12 1.286 1.12 2.36 0 1.036-.386 1.93-1.158 2.685-.77.753-1.946 1.13-3.524 1.13-1.699 0-2.902-.393-3.61-1.18-.707-.786-1.085-1.759-1.135-2.919h1.845zm9.778-7.936h1.951v11.59h-1.95v-11.59zm0-4.382h1.951v2.218h-1.95v-2.218zm4.852 4.327h1.823v1.653c.54-.681 1.113-1.17 1.717-1.468a4.504 4.504 0 0 1 2.015-.446c1.621 0 2.716.577 3.285 1.729.313.63.469 1.533.469 2.707v7.47h-1.951v-7.34c0-.71-.104-1.282-.31-1.717-.34-.725-.96-1.087-1.855-1.087-.455 0-.828.047-1.12.141-.526.16-.988.478-1.386.957-.32.384-.528.78-.624 1.19-.096.41-.144.995-.144 1.756v6.1h-1.92v-11.645zm19.258.321c.76.388 1.34.89 1.738 1.506.384.587.64 1.272.768 2.055.113.536.17 1.391.17 2.566h-8.37c.035 1.181.309 2.129.82 2.843.512.714 1.305 1.07 2.379 1.07 1.002 0 1.802-.336 2.399-1.01a3.43 3.43 0 0 0 .725-1.36h1.887c-.05.428-.215.905-.496 1.43-.28.526-.595.955-.943 1.289-.583.58-1.305.97-2.165 1.174a6.455 6.455 0 0 1-1.567.174c-1.422 0-2.627-.528-3.615-1.582-.988-1.055-1.482-2.532-1.482-4.43 0-1.87.497-3.39 1.492-4.556.996-1.167 2.297-1.75 3.903-1.75.81 0 1.596.193 2.357.581zm.703 4.572c-.078-.848-.259-1.526-.543-2.033-.526-.943-1.404-1.414-2.634-1.414-.882 0-1.621.325-2.218.973-.597.65-.914 1.474-.95 2.474h6.345zm5.47 3.098c.058.653.218 1.153.48 1.5.484.631 1.323.947 2.517.947.711 0 1.337-.158 1.877-.473.54-.315.81-.803.81-1.463 0-.5-.217-.88-.65-1.141-.277-.16-.825-.344-1.642-.555l-1.525-.391c-.974-.246-1.692-.522-2.154-.826-.825-.53-1.237-1.262-1.237-2.197 0-1.101.39-1.993 1.168-2.674.778-.682 1.825-1.022 3.14-1.022 1.72 0 2.96.514 3.721 1.544.477.652.708 1.355.693 2.109h-1.812a2.29 2.29 0 0 0-.459-1.207c-.44-.515-1.205-.772-2.292-.772-.726 0-1.275.142-1.648.424-.373.283-.56.656-.56 1.12 0 .507.246.913.736 1.218.284.181.704.34 1.258.478l1.27.315c1.378.341 2.302.67 2.772.99.746.5 1.12 1.286 1.12 2.36 0 1.036-.386 1.93-1.158 2.685-.771.753-1.946 1.13-3.524 1.13-1.699 0-2.902-.393-3.61-1.18-.707-.786-1.085-1.759-1.135-2.919h1.845zm10.92 0c.057.653.217 1.153.48 1.5.483.631 1.322.947 2.516.947.711 0 1.337-.158 1.877-.473.54-.315.81-.803.81-1.463 0-.5-.216-.88-.65-1.141-.277-.16-.825-.344-1.642-.555l-1.525-.391c-.974-.246-1.692-.522-2.154-.826-.825-.53-1.237-1.262-1.237-2.197 0-1.101.39-1.993 1.168-2.674.778-.682 1.825-1.022 3.14-1.022 1.72 0 2.96.514 3.722 1.544.476.652.707 1.355.693 2.109h-1.813a2.29 2.29 0 0 0-.459-1.207c-.44-.515-1.205-.772-2.292-.772-.725 0-1.275.142-1.648.424-.373.283-.56.656-.56 1.12 0 .507.246.913.736 1.218.285.181.704.34 1.258.478l1.27.315c1.379.341 2.303.67 2.772.99.746.5 1.12 1.286 1.12 2.36 0 1.036-.386 1.93-1.157 2.685-.772.753-1.947 1.13-3.525 1.13-1.699 0-2.902-.393-3.61-1.18-.707-.786-1.085-1.759-1.135-2.919h1.845zm17.488-1.5c.05.906.26 1.642.629 2.207.704 1.058 1.944 1.588 3.721 1.588.796 0 1.522-.116 2.176-.348 1.265-.45 1.898-1.254 1.898-2.414 0-.87-.267-1.49-.8-1.86-.54-.362-1.386-.677-2.538-.945l-2.122-.49c-1.386-.318-2.367-.67-2.943-1.054-.995-.667-1.493-1.663-1.493-2.99 0-1.435.487-2.613 1.461-3.533.974-.921 2.353-1.381 4.137-1.381 1.642 0 3.038.404 4.186 1.212 1.148.808 1.722 2.1 1.722 3.876h-1.994c-.107-.855-.334-1.511-.683-1.968-.647-.833-1.745-1.25-3.295-1.25-1.25 0-2.15.268-2.697.804-.548.537-.822 1.16-.822 1.87 0 .783.32 1.356.96 1.718.42.232 1.369.522 2.847.87l2.197.511c1.06.247 1.877.584 2.452 1.011.996.747 1.493 1.83 1.493 3.251 0 1.769-.63 3.033-1.892 3.795-1.262.76-2.728 1.141-4.399 1.141-1.948 0-3.473-.507-4.575-1.522-1.101-1.008-1.642-2.374-1.62-4.099h1.994zm20.073 2.42c.473-.983.71-2.076.71-3.279 0-1.087-.171-1.971-.512-2.653-.54-1.072-1.472-1.609-2.794-1.609-1.173 0-2.026.457-2.56 1.37-.533.913-.8 2.015-.8 3.305 0 1.24.267 2.273.8 3.099.534.826 1.38 1.24 2.538 1.24 1.273 0 2.145-.492 2.618-1.474zm1.19-7.747c1.016 1 1.524 2.471 1.524 4.414 0 1.877-.448 3.428-1.344 4.653-.895 1.225-2.285 1.838-4.169 1.838-1.57 0-2.819-.542-3.743-1.626-.924-1.083-1.386-2.538-1.386-4.365 0-1.957.487-3.515 1.461-4.675.974-1.16 2.282-1.74 3.924-1.74 1.472 0 2.716.5 3.732 1.5zm3.86-5.491h1.919v15.972h-1.92V177.7zm6.717 4.327v7.73c0 .595.093 1.08.277 1.457.342.696.978 1.044 1.91 1.044 1.336 0 2.246-.609 2.729-1.826.263-.653.394-1.548.394-2.686v-5.719h1.92v11.645h-1.813l.021-1.718a3.93 3.93 0 0 1-.927 1.12c-.733.609-1.621.913-2.666.913-1.628 0-2.737-.555-3.327-1.664-.32-.594-.48-1.388-.48-2.38v-7.916h1.962zm10.61-3.25h1.94v3.25h1.824v1.598h-1.823v7.6c0 .406.135.678.405.816.15.08.398.12.746.12a5.622 5.622 0 0 0 .672-.033v1.544c-.22.065-.45.112-.688.141a6.415 6.415 0 0 1-.773.043c-.895 0-1.503-.233-1.823-.7-.32-.468-.48-1.075-.48-1.822v-7.709h-1.546v-1.598h1.546v-3.25zm5.684 3.305h1.951v11.59h-1.951v-11.59zm0-4.382h1.951v2.218h-1.951v-2.218zm12.001 13.237c.473-.982.71-2.075.71-3.278 0-1.087-.171-1.971-.513-2.653-.54-1.072-1.471-1.609-2.793-1.609-1.173 0-2.026.457-2.56 1.37-.533.913-.8 2.015-.8 3.305 0 1.24.267 2.273.8 3.099.534.826 1.38 1.24 2.538 1.24 1.273 0 2.145-.492 2.618-1.474zm1.189-7.746c1.017 1 1.525 2.471 1.525 4.414 0 1.877-.448 3.428-1.344 4.653-.895 1.225-2.285 1.838-4.169 1.838-1.571 0-2.819-.542-3.743-1.626-.924-1.083-1.386-2.538-1.386-4.365 0-1.957.487-3.515 1.46-4.675.975-1.16 2.283-1.74 3.925-1.74 1.471 0 2.715.5 3.732 1.5zm3.807-1.164h1.823v1.653c.54-.681 1.113-1.17 1.717-1.468a4.504 4.504 0 0 1 2.015-.446c1.621 0 2.716.577 3.285 1.729.312.63.469 1.533.469 2.707v7.47h-1.952v-7.34c0-.71-.103-1.282-.309-1.717-.341-.725-.96-1.087-1.855-1.087-.455 0-.828.047-1.12.141-.526.16-.988.478-1.386.957-.32.384-.528.78-.624 1.19-.096.41-.144.995-.144 1.756v6.1h-1.92v-11.645zm13.286 7.991c.057.653.217 1.153.48 1.5.483.631 1.322.947 2.517.947.71 0 1.336-.158 1.876-.473.54-.315.81-.803.81-1.463 0-.5-.216-.88-.65-1.141-.277-.16-.824-.344-1.642-.555l-1.525-.391c-.974-.246-1.692-.522-2.154-.826-.824-.53-1.237-1.262-1.237-2.197 0-1.101.39-1.993 1.168-2.674.778-.682 1.825-1.022 3.14-1.022 1.72 0 2.961.514 3.722 1.544.476.652.707 1.355.693 2.109h-1.813a2.29 2.29 0 0 0-.458-1.207c-.441-.515-1.205-.772-2.293-.772-.725 0-1.274.142-1.647.424-.374.283-.56.656-.56 1.12 0 .507.245.913.736 1.218.284.181.703.34 1.258.478l1.269.315c1.379.341 2.303.67 2.772.99.747.5 1.12 1.286 1.12 2.36 0 1.036-.386 1.93-1.157 2.685-.771.753-1.946 1.13-3.524 1.13-1.7 0-2.903-.393-3.61-1.18-.707-.786-1.086-1.759-1.135-2.919h1.844zM247.74 99.03V52.327h33.325c9.675 0 16.752 1.99 21.23 5.971 4.48 3.981 6.72 9.774 6.72 17.38 0 7.605-2.24 13.428-6.72 17.468-4.478 4.04-11.555 6.001-21.23 5.882H247.74zm-17.02-60.962v127.27h17.02v-52.049h39.058c12.9.119 22.664-3.149 29.294-9.804 6.629-6.654 9.943-15.923 9.943-27.806 0-11.884-3.314-21.123-9.943-27.718-6.63-6.595-16.394-9.893-29.294-9.893H230.72zm178.328 127.27V73.183H393.82v52.049c0 4.16-.567 7.991-1.702 11.497-1.135 3.506-2.837 6.565-5.106 9.18-2.27 2.614-5.106 4.634-8.51 6.06-3.405 1.426-7.436 2.14-12.094 2.14-5.853 0-10.451-1.664-13.796-4.992-3.344-3.327-5.016-7.843-5.016-13.547V73.183h-15.23v60.605c0 4.99.508 9.536 1.524 13.636 1.015 4.1 2.777 7.635 5.285 10.606 2.508 2.97 5.793 5.258 9.854 6.862 4.061 1.605 9.137 2.407 15.229 2.407 6.808 0 12.72-1.337 17.737-4.01 5.017-2.675 9.138-6.863 12.363-12.567h.358v14.616h14.333zm11.885-127.27v127.27h15.229V38.068h-15.23zm36.25 98.215h-15.228c.239 5.704 1.433 10.547 3.583 14.528 2.15 3.98 5.017 7.189 8.6 9.625 3.583 2.436 7.704 4.189 12.362 5.258 4.659 1.07 9.556 1.605 14.692 1.605 4.658 0 9.346-.446 14.064-1.337s8.958-2.466 12.72-4.724c3.763-2.258 6.81-5.228 9.138-8.912 2.33-3.684 3.494-8.318 3.494-13.904 0-4.397-.866-8.08-2.598-11.051a23.118 23.118 0 0 0-6.808-7.397c-2.807-1.961-6.032-3.536-9.675-4.724a114.818 114.818 0 0 0-11.198-3.03 697.656 697.656 0 0 0-10.75-2.407c-3.583-.772-6.808-1.723-9.675-2.852-2.866-1.129-5.225-2.555-7.077-4.278-1.851-1.723-2.777-3.891-2.777-6.506 0-2.376.598-4.307 1.792-5.793 1.194-1.485 2.747-2.674 4.658-3.565 1.911-.891 4.031-1.515 6.36-1.871a45.542 45.542 0 0 1 6.898-.535c2.509 0 4.987.267 7.436.802 2.448.535 4.688 1.396 6.718 2.585a15.218 15.218 0 0 1 5.017 4.723c1.314 1.96 2.09 4.427 2.33 7.397h15.228c-.358-5.585-1.553-10.249-3.583-13.992-2.03-3.743-4.748-6.714-8.152-8.913-3.404-2.198-7.316-3.743-11.735-4.634-4.42-.891-9.257-1.337-14.513-1.337-4.06 0-8.152.505-12.273 1.515-4.12 1.01-7.823 2.555-11.108 4.635-3.284 2.08-5.972 4.783-8.062 8.11-2.09 3.327-3.136 7.308-3.136 11.943 0 5.941 1.494 10.576 4.48 13.903 2.986 3.328 6.718 5.912 11.197 7.754 4.48 1.842 9.347 3.268 14.602 4.278 5.256 1.01 10.123 2.139 14.602 3.387 4.48 1.248 8.212 2.881 11.198 4.902 2.986 2.02 4.48 4.99 4.48 8.912 0 2.852-.718 5.199-2.15 7.04-1.434 1.843-3.256 3.24-5.465 4.19-2.21.95-4.629 1.604-7.257 1.96-2.627.357-5.136.535-7.524.535-3.106 0-6.122-.297-9.048-.891-2.927-.594-5.554-1.574-7.884-2.941a16.167 16.167 0 0 1-5.643-5.526c-1.434-2.317-2.21-5.14-2.33-8.467zm132.642-25.846h-53.212c.24-3.565 1.016-6.922 2.33-10.07 1.313-3.15 3.105-5.913 5.374-8.29 2.27-2.376 4.987-4.248 8.152-5.614 3.166-1.367 6.719-2.05 10.66-2.05 3.823 0 7.317.683 10.482 2.05 3.165 1.366 5.912 3.208 8.241 5.525 2.33 2.318 4.18 5.08 5.554 8.289 1.374 3.208 2.18 6.595 2.42 10.16zm14.692 25.668h-15.05c-1.314 6.06-4.031 10.576-8.152 13.547-4.121 2.97-9.406 4.456-15.856 4.456-5.017 0-9.376-.832-13.08-2.495-3.702-1.664-6.748-3.892-9.137-6.685-2.389-2.792-4.12-6-5.195-9.625-1.075-3.624-1.553-7.457-1.434-11.497h69.337c.239-5.585-.269-11.467-1.523-17.647-1.254-6.18-3.523-11.883-6.808-17.112-3.285-5.228-7.645-9.536-13.08-12.923-5.434-3.387-12.272-5.08-20.514-5.08-6.33 0-12.153 1.188-17.468 3.565-5.315 2.377-9.914 5.704-13.796 9.982-3.882 4.278-6.898 9.328-9.048 15.151-2.15 5.823-3.225 12.24-3.225 19.251.24 7.011 1.284 13.488 3.136 19.43 1.851 5.941 4.628 11.05 8.331 15.329 3.703 4.278 8.271 7.605 13.706 9.982 5.435 2.376 11.855 3.565 19.26 3.565 10.511 0 19.23-2.615 26.158-7.843 6.928-5.229 11.407-13.012 13.438-23.35zM209.71 112.865C205.689 167.182 160.346 210 105 210 47.01 210 0 162.99 0 105S47.01 0 105 0c56.217 0 102.115 44.178 104.87 99.71h-49.833L144.08 76.374l-15.676 45.347-18.495-94.476L90.643 105.6l-3.735-9.088h-26.86a15.325 15.325 0 0 0-14.089-9.26c-8.46 0-15.32 6.836-15.32 15.269s6.86 15.269 15.32 15.269a15.324 15.324 0 0 0 13.563-8.162H78.31l16.45 36.67 13.796-57.03 16.972 84.79 22.64-68.782 5.25 7.444 56.293.145z"/></g></svg>