<svg width="28" height="35" viewBox="0 0 28 35" xmlns="http://www.w3.org/2000/svg"><title>notepad_F</title><path d="M5.65 2.097H7.9V.992c0-.21.168-.38.375-.38.201 0 .375.17.375.38v1.105h2.25V.992c0-.21.168-.38.375-.38.201 0 .375.17.375.38v1.105h2.25V.992c0-.21.168-.38.375-.38.201 0 .375.17.375.38v1.105h2.25V.992c0-.21.168-.38.375-.38.201 0 .375.17.375.38v1.105h2.25V.992c0-.21.168-.38.375-.38.201 0 .375.17.375.38v1.105h2.25V.992c0-.21.168-.38.375-.38.201 0 .375.17.375.38v1.105h3.75v32.668H.4V2.097h4.5V.992c0-.21.168-.38.375-.38.201 0 .375.17.375.38v1.105zm-.034 2.749a.746.746 0 0 1-.716.964.746.746 0 0 1-.75-.743c0-.41.336-.742.75-.742v.362c0 .21.174.38.375.38.151 0 .282-.09.341-.221zm3 0a.746.746 0 0 1-.716.964.746.746 0 0 1-.75-.743c0-.41.336-.742.75-.742v.362c0 .21.174.38.375.38.151 0 .282-.09.341-.221zm3 0a.746.746 0 0 1-.716.964.746.746 0 0 1-.75-.743c0-.41.336-.742.75-.742v.362c0 .21.174.38.375.38.151 0 .282-.09.341-.221zm9 0a.746.746 0 0 1-.716.964.746.746 0 0 1-.75-.743c0-.41.336-.742.75-.742v.362c0 .21.174.38.375.38.151 0 .282-.09.341-.221zm3 0a.746.746 0 0 1-.716.964.746.746 0 0 1-.75-.743c0-.41.336-.742.75-.742v.362c0 .21.174.38.375.38.151 0 .282-.09.341-.221zm-6 0a.746.746 0 0 1-.716.964.746.746 0 0 1-.75-.743c0-.41.336-.742.75-.742v.362c0 .21.174.38.375.38.151 0 .282-.09.341-.221zm-3 0a.746.746 0 0 1-.716.964.746.746 0 0 1-.75-.743c0-.41.336-.742.75-.742v.362c0 .21.174.38.375.38.151 0 .282-.09.341-.221zM4.891 8.779a.74.74 0 0 0-.741.743c0 .41.338.742.74.742h18.02a.74.74 0 0 0 .74-.742.746.746 0 0 0-.74-.743H4.89zm0 10.395a.74.74 0 0 0-.741.742c0 .41.338.743.74.743h18.02a.74.74 0 0 0 .74-.743.746.746 0 0 0-.74-.742H4.89zm-.008-5.198a.736.736 0 0 0-.733.743c0 .41.324.742.733.742h8.284c.405 0 .733-.33.733-.742a.735.735 0 0 0-.733-.743H4.883zm0 10.395a.736.736 0 0 0-.733.742c0 .41.324.743.733.743h8.284c.405 0 .733-.33.733-.743a.735.735 0 0 0-.733-.742H4.883z" fill="#8F64CC" fill-rule="evenodd"/></svg>