<svg width="237" height="234" viewBox="0 0 237 234" xmlns="http://www.w3.org/2000/svg"><title>ribbon</title><defs><filter x="-50%" y="-50%" width="200%" height="200%" filterUnits="objectBoundingBox" id="a"><feOffset in="SourceAlpha" result="shadowOffsetOuter1"/><feGaussianBlur stdDeviation="2.5" in="shadowOffsetOuter1" result="shadowBlurOuter1"/><feColorMatrix values="0 0 0 0 0 0 0 0 0 0 0 0 0 0 0 0 0 0 0.35 0" in="shadowBlurOuter1" result="shadowMatrixOuter1"/><feMerge><feMergeNode in="shadowMatrixOuter1"/><feMergeNode in="SourceGraphic"/></feMerge></filter></defs><g fill="none" fill-rule="evenodd"><path fill="#3B3B3B" filter="url(#a)" d="M0 0h332v60H0z" transform="rotate(45 79.866 30.322)"/><path d="M85.807 33.078c1.446-1.446 3.078-2.169 4.896-2.169 1.819 0 3.437.71 4.855 2.127.916.916 1.533 1.777 1.85 2.583l-1.084.918c-.308-.852-.81-1.625-1.505-2.32-1.257-1.257-2.586-1.856-3.988-1.799-1.402.058-2.683.666-3.843 1.827-1.16 1.16-1.769 2.422-1.826 3.787-.058 1.365.5 2.635 1.674 3.808.861.861 1.704 1.432 2.528 1.713l-.857 1.036c-.838-.267-1.68-.824-2.527-1.671-1.584-1.584-2.37-3.258-2.358-5.024.011-1.765.74-3.37 2.185-4.816zm5.953 15.62c-1.565-1.566-1.4-3.297.497-5.193l4.357-4.358 1.036 1.036-4.17 4.171c-.66.658-1.048 1.192-1.168 1.602-.12.41-.138.776-.055 1.098.083.322.301.66.656 1.015.658.658 1.38.901 2.165.729.785-.173 1.538-.62 2.261-1.344l3.791-3.79 1.015 1.015-5.386 5.386a23.648 23.648 0 0 0-1.588 1.726l-.946-.946 1.188-1.243c-1.414.419-2.631.117-3.653-.905zm15.412.731c.235.235.406.442.511.622l-1.084.974a3.56 3.56 0 0 0-.614-.78c-.276-.277-.77-.459-1.478-.546-.709-.088-1.648.453-2.817 1.622l-3.495 3.495-1.028-1.03 5.386-5.385a23.276 23.276 0 0 0 1.581-1.734l.946.946-1.27 1.395c.51-.244 1.087-.346 1.73-.307.642.039 1.186.282 1.632.728zm4.634 4.634c.235.235.405.442.51.621l-1.083.974a3.56 3.56 0 0 0-.615-.78c-.276-.276-.769-.458-1.478-.546-.708-.087-1.648.454-2.817 1.623l-3.494 3.494-1.029-1.029 5.386-5.386a23.276 23.276 0 0 0 1.582-1.733l.946.946-1.271 1.395c.511-.244 1.088-.347 1.73-.308.642.04 1.186.282 1.633.729zm-4.26 7.837c.096-.87.667-1.827 1.712-2.872 1.04-1.04 2.2-1.654 3.477-1.84 1.277-.187 2.379.183 3.304 1.108.925.925 1.285 1.948 1.08 3.07-.204 1.12-.818 2.192-1.84 3.214l-.42.421-4.71-4.71c-.732.732-1.142 1.543-1.23 2.431-.087.889.228 1.692.947 2.41a5.668 5.668 0 0 0 2.472 1.478l-.877 1.043a7.401 7.401 0 0 1-2.348-1.602c-.7-.7-1.16-1.35-1.381-1.948-.221-.598-.283-1.332-.187-2.203zm7.029 1.285c1.022-1.022 1.464-1.878 1.326-2.569-.138-.69-.434-1.262-.888-1.716-.453-.453-1.109-.603-1.968-.449-.858.154-1.568.512-2.13 1.074l3.66 3.66zm4.012 1.25a23.276 23.276 0 0 0 1.581-1.734l.946.947-1.167 1.263c1.409-.405 2.617-.099 3.626.919.851.851 1.212 1.704 1.08 2.558-.13.854-.64 1.725-1.53 2.614l-4.37 4.37-1.015-1.014 4.17-4.171c.663-.663 1.05-1.202 1.16-1.616.111-.414.12-.785.028-1.112-.092-.327-.313-.665-.663-1.015-.658-.658-1.377-.901-2.158-.728-.78.172-1.532.62-2.254 1.343l-3.791 3.79-1.03-1.028 5.387-5.386zm4.274 15.364c-.686-.686-.935-1.336-.749-1.95.187-.615.657-1.3 1.412-2.055l4.06-4.06-1.325-1.326.808-.808 1.326 1.326 1.58-1.582 1.375.67-1.933 1.934 1.595 1.595-.808.808-1.595-1.595-4.33 4.33c-.313.312-.528.645-.646.997-.117.352.008.713.377 1.08.23.231.557.434.98.608l-.808.919a4.097 4.097 0 0 1-1.319-.89zm2.59 2.272l10.2-10.2 1.028 1.03-10.2 10.199-1.028-1.029zm.89 5.559c.54.538 1.513.426 2.922-.339l.607-.317 4.84-9.73 1.113 1.112-4.171 7.969 7.948-4.192 1.077 1.077-11.104 5.442c-.82.405-1.467.62-1.943.645-.477.026-.873-.016-1.188-.124a2.236 2.236 0 0 1-.86-.549 5.451 5.451 0 0 1-.753-.974l.988-.807c.166.34.34.603.525.787zm20.91-.98l1.23-1.23 1.028 1.029-1.23 1.23-1.028-1.03zm-8.61 8.61l7.043-7.043 1.028 1.029-7.043 7.043-1.029-1.029zm8.465-2.306a23.276 23.276 0 0 0 1.581-1.733l.946.946-1.167 1.263c1.41-.405 2.617-.099 3.626.919.851.851 1.212 1.704 1.08 2.558-.13.854-.64 1.725-1.53 2.614l-4.37 4.37-1.015-1.014 4.17-4.171c.663-.663 1.05-1.202 1.16-1.616.111-.414.12-.785.028-1.112-.092-.327-.313-.665-.663-1.015-.658-.658-1.377-.9-2.158-.728-.78.172-1.531.62-2.254 1.343l-3.791 3.79-1.03-1.028 5.387-5.386zm19.325 23.568c-1.27 1.27-2.548 1.716-3.832 1.338-1.285-.378-2.595-1.236-3.932-2.573l-4.135-4.135 11.32-11.32 4.615 4.616c1.696 1.696 2.41 3.073 2.142 4.131-.268 1.058-.717 1.902-1.347 2.532-.63.63-1.364.97-2.204 1.019-.84.05-1.682-.193-2.527-.73.585.84.895 1.724.928 2.652.033.928-.31 1.752-1.028 2.47zm2.138-7.707c.57-.569.782-1.17.638-1.806-.143-.635-.505-1.243-1.085-1.823l-1.409-1.409-3.248 3.248 1.21 1.21c1.022 1.022 1.849 1.452 2.481 1.289.633-.163 1.104-.4 1.413-.709zm-4.632 5.113c1.182-1.182.906-2.64-.829-4.375l-1.085-1.086-3.547 3.547 1.194 1.193c1.104 1.105 2 1.593 2.689 1.463.687-.13 1.213-.377 1.578-.742zm1.218 7.847l11.32-11.319 7.374 7.375-1.732 1.732-4.922-4.922-2.966 2.966 4.706 4.707-1.715 1.715-4.706-4.707-3.174 3.174 5.08 5.08-1.732 1.732-7.533-7.533zm23.782 5.154l-9.314 9.314-2.527-2.527 9.314-9.314-3.555-3.555 2.005-2.005 9.63 9.629-2.006 2.005-3.547-3.547zm2.867 21.495l1.832-3.836-4.815-4.815-3.853 1.815-2.478-2.478 15.629-7.01 3.29 3.29-6.986 15.653-2.619-2.619zm6.34-13.117l-7.102 3.257 3.787 3.786 3.314-7.043z" fill="#FFF"/></g></svg>